<?xml version="1.0" encoding="UTF-8" standalone="no"?>
<!DOCTYPE svg PUBLIC "-//W3C//DTD SVG 1.1//EN"
 "http://www.w3.org/Graphics/SVG/1.1/DTD/svg11.dtd">
<!-- Generated by graphviz version 2.43.0 (0)
 -->
<!-- Title: pfc/algebraic.hpp Pages: 1 -->
<svg width="473pt" height="247pt"
 viewBox="0.00 0.00 473.30 247.00" xmlns="http://www.w3.org/2000/svg" xmlns:xlink="http://www.w3.org/1999/xlink">

<svg id="main" version="1.1" xmlns="http://www.w3.org/2000/svg" xmlns:xlink="http://www.w3.org/1999/xlink" xml:space="preserve" onload="init(evt)">
<style type="text/css"><![CDATA[
.node, .edge {opacity: 0.7;}
.node.selected, .edge.selected {opacity: 1;}
.edge:hover path { stroke: red; }
.edge:hover polygon { stroke: red; fill: red; }
]]></style>
<script type="application/ecmascript" xlink:href="svg.min.js"/>
<svg id="graph" class="graph">
<g id="graph0" class="graph" transform="scale(1 1) rotate(0) translate(4 243)">
<title>pfc/algebraic.hpp</title>
<!-- Node1 -->
<g id="Node000001" class="node">
<title>Node1</title>
<g id="a_Node000001"><a xlink:title=" ">
<polygon fill="#999999" stroke="#666666" points="405.8,-239 304.8,-239 304.8,-220 405.8,-220 405.8,-239"/>
<text text-anchor="middle" x="355.3" y="-227" font-family="Helvetica,sans-Serif" font-size="10.00">pfc/algebraic.hpp</text>
</a>
</g>
</g>
<!-- Node2 -->
<g id="Node000002" class="node">
<title>Node2</title>
<g id="a_Node000002"><a xlink:href="core_8hpp.html" target="_top" xlink:title=" ">
<polygon fill="white" stroke="#666666" points="323.8,-74 264.8,-74 264.8,-55 323.8,-55 323.8,-74"/>
<text text-anchor="middle" x="294.3" y="-62" font-family="Helvetica,sans-Serif" font-size="10.00">core.hpp</text>
</a>
</g>
</g>
<!-- Node1&#45;&gt;Node2 -->
<g id="edge1_Node000001_Node000002" class="edge">
<title>Node1&#45;&gt;Node2</title>
<g id="a_edge1_Node000001_Node000002"><a xlink:title=" ">
<path fill="none" stroke="#63b8ff" d="M357.95,-219.84C363.68,-199.38 375.27,-146.97 356.3,-110 349.34,-96.44 336.11,-86.07 323.65,-78.78"/>
<polygon fill="#63b8ff" stroke="#63b8ff" points="325.28,-75.68 314.82,-74 321.95,-81.84 325.28,-75.68"/>
</a>
</g>
</g>
<!-- Node9 -->
<g id="Node000009" class="node">
<title>Node9</title>
<g id="a_Node000009"><a xlink:href="packed_8hpp.html" target="_top" xlink:title=" ">
<polygon fill="white" stroke="#666666" points="259.3,-184 187.3,-184 187.3,-165 259.3,-165 259.3,-184"/>
<text text-anchor="middle" x="223.3" y="-172" font-family="Helvetica,sans-Serif" font-size="10.00">packed.hpp</text>
</a>
</g>
</g>
<!-- Node1&#45;&gt;Node9 -->
<g id="edge8_Node000001_Node000009" class="edge">
<title>Node1&#45;&gt;Node9</title>
<g id="a_edge8_Node000001_Node000009"><a xlink:title=" ">
<path fill="none" stroke="#63b8ff" d="M334.09,-219.98C312.57,-211.34 279.02,-197.87 254.47,-188.02"/>
<polygon fill="#63b8ff" stroke="#63b8ff" points="255.48,-184.65 244.89,-184.17 252.87,-191.14 255.48,-184.65"/>
</a>
</g>
</g>
<!-- Node15 -->
<g id="Node000015" class="node">
<title>Node15</title>
<g id="a_Node000015"><a xlink:title=" ">
<polygon fill="#e0e0e0" stroke="#999999" points="347.3,-129 289.3,-129 289.3,-110 347.3,-110 347.3,-129"/>
<text text-anchor="middle" x="318.3" y="-117" font-family="Helvetica,sans-Serif" font-size="10.00">memory</text>
</a>
</g>
</g>
<!-- Node1&#45;&gt;Node15 -->
<g id="edge21_Node000001_Node000015" class="edge">
<title>Node1&#45;&gt;Node15</title>
<g id="a_edge21_Node000001_Node000015"><a xlink:title=" ">
<path fill="none" stroke="#63b8ff" d="M352.27,-219.66C346.23,-202.01 332.55,-162.09 324.51,-138.64"/>
<polygon fill="#63b8ff" stroke="#63b8ff" points="327.82,-137.48 321.27,-129.16 321.2,-139.75 327.82,-137.48"/>
</a>
</g>
</g>
<!-- Node17 -->
<g id="Node000017" class="node">
<title>Node17</title>
<g id="a_Node000017"><a xlink:title=" ">
<polygon fill="#e0e0e0" stroke="#999999" points="454.8,-184 403.8,-184 403.8,-165 454.8,-165 454.8,-184"/>
<text text-anchor="middle" x="429.3" y="-172" font-family="Helvetica,sans-Serif" font-size="10.00">variant</text>
</a>
</g>
</g>
<!-- Node1&#45;&gt;Node17 -->
<g id="edge20_Node000001_Node000017" class="edge">
<title>Node1&#45;&gt;Node17</title>
<g id="a_edge20_Node000001_Node000017"><a xlink:title=" ">
<path fill="none" stroke="#63b8ff" d="M367.19,-219.98C378.45,-211.92 395.59,-199.65 409.01,-190.03"/>
<polygon fill="#63b8ff" stroke="#63b8ff" points="411.1,-192.84 417.19,-184.17 407.03,-187.15 411.1,-192.84"/>
</a>
</g>
</g>
<!-- Node3 -->
<g id="Node000003" class="node">
<title>Node3</title>
<g id="a_Node000003"><a xlink:title=" ">
<polygon fill="#e0e0e0" stroke="#999999" points="387.3,-19 337.3,-19 337.3,0 387.3,0 387.3,-19"/>
<text text-anchor="middle" x="362.3" y="-7" font-family="Helvetica,sans-Serif" font-size="10.00">cstdint</text>
</a>
</g>
</g>
<!-- Node2&#45;&gt;Node3 -->
<g id="edge2_Node000002_Node000003" class="edge">
<title>Node2&#45;&gt;Node3</title>
<g id="a_edge2_Node000002_Node000003"><a xlink:title=" ">
<path fill="none" stroke="#63b8ff" d="M305.23,-54.98C315.38,-47.07 330.72,-35.11 342.95,-25.58"/>
<polygon fill="#63b8ff" stroke="#63b8ff" points="345.44,-28.08 351.18,-19.17 341.14,-22.56 345.44,-28.08"/>
</a>
</g>
</g>
<!-- Node4 -->
<g id="Node000004" class="node">
<title>Node4</title>
<g id="a_Node000004"><a xlink:title=" ">
<polygon fill="#e0e0e0" stroke="#999999" points="465.3,-19 405.3,-19 405.3,0 465.3,0 465.3,-19"/>
<text text-anchor="middle" x="435.3" y="-7" font-family="Helvetica,sans-Serif" font-size="10.00">concepts</text>
</a>
</g>
</g>
<!-- Node2&#45;&gt;Node4 -->
<g id="edge3_Node000002_Node000004" class="edge">
<title>Node2&#45;&gt;Node4</title>
<g id="a_edge3_Node000002_Node000004"><a xlink:title=" ">
<path fill="none" stroke="#63b8ff" d="M316.95,-54.98C340.15,-46.27 376.42,-32.63 402.7,-22.75"/>
<polygon fill="#63b8ff" stroke="#63b8ff" points="404.1,-25.97 412.23,-19.17 401.64,-19.41 404.1,-25.97"/>
</a>
</g>
</g>
<!-- Node5 -->
<g id="Node000005" class="node">
<title>Node5</title>
<g id="a_Node000005"><a xlink:title=" ">
<polygon fill="#e0e0e0" stroke="#999999" points="192.8,-19 163.8,-19 163.8,0 192.8,0 192.8,-19"/>
<text text-anchor="middle" x="178.3" y="-7" font-family="Helvetica,sans-Serif" font-size="10.00">bit</text>
</a>
</g>
</g>
<!-- Node2&#45;&gt;Node5 -->
<g id="edge4_Node000002_Node000005" class="edge">
<title>Node2&#45;&gt;Node5</title>
<g id="a_edge4_Node000002_Node000005"><a xlink:title=" ">
<path fill="none" stroke="#63b8ff" d="M275.66,-54.98C255.67,-45.85 223.86,-31.32 202.08,-21.36"/>
<polygon fill="#63b8ff" stroke="#63b8ff" points="203.4,-18.12 192.85,-17.15 200.49,-24.49 203.4,-18.12"/>
</a>
</g>
</g>
<!-- Node6 -->
<g id="Node000006" class="node">
<title>Node6</title>
<g id="a_Node000006"><a xlink:title=" ">
<polygon fill="#e0e0e0" stroke="#999999" points="251.3,-19 211.3,-19 211.3,0 251.3,0 251.3,-19"/>
<text text-anchor="middle" x="231.3" y="-7" font-family="Helvetica,sans-Serif" font-size="10.00">span</text>
</a>
</g>
</g>
<!-- Node2&#45;&gt;Node6 -->
<g id="edge5_Node000002_Node000006" class="edge">
<title>Node2&#45;&gt;Node6</title>
<g id="a_edge5_Node000002_Node000006"><a xlink:title=" ">
<path fill="none" stroke="#63b8ff" d="M284.18,-54.98C274.86,-47.15 260.83,-35.34 249.56,-25.86"/>
<polygon fill="#63b8ff" stroke="#63b8ff" points="251.51,-22.93 241.61,-19.17 247.01,-28.29 251.51,-22.93"/>
</a>
</g>
</g>
<!-- Node7 -->
<g id="Node000007" class="node">
<title>Node7</title>
<g id="a_Node000007"><a xlink:title=" ">
<polygon fill="#e0e0e0" stroke="#999999" points="319.3,-19 269.3,-19 269.3,0 319.3,0 319.3,-19"/>
<text text-anchor="middle" x="294.3" y="-7" font-family="Helvetica,sans-Serif" font-size="10.00">ranges</text>
</a>
</g>
</g>
<!-- Node2&#45;&gt;Node7 -->
<g id="edge6_Node000002_Node000007" class="edge">
<title>Node2&#45;&gt;Node7</title>
<g id="a_edge6_Node000002_Node000007"><a xlink:title=" ">
<path fill="none" stroke="#63b8ff" d="M294.3,-54.75C294.3,-47.8 294.3,-37.85 294.3,-29.13"/>
<polygon fill="#63b8ff" stroke="#63b8ff" points="297.8,-29.09 294.3,-19.09 290.8,-29.09 297.8,-29.09"/>
</a>
</g>
</g>
<!-- Node8 -->
<g id="Node000008" class="node">
<title>Node8</title>
<g id="a_Node000008"><a xlink:title=" ">
<polygon fill="#e0e0e0" stroke="#999999" points="79.3,-19 23.3,-19 23.3,0 79.3,0 79.3,-19"/>
<text text-anchor="middle" x="51.3" y="-7" font-family="Helvetica,sans-Serif" font-size="10.00">optional</text>
</a>
</g>
</g>
<!-- Node2&#45;&gt;Node8 -->
<g id="edge7_Node000002_Node000008" class="edge">
<title>Node2&#45;&gt;Node8</title>
<g id="a_edge7_Node000002_Node000008"><a xlink:title=" ">
<path fill="none" stroke="#63b8ff" d="M264.5,-57C220.37,-47.38 137.65,-29.33 89.24,-18.77"/>
<polygon fill="#63b8ff" stroke="#63b8ff" points="89.97,-15.35 79.46,-16.64 88.48,-22.19 89.97,-15.35"/>
</a>
</g>
</g>
<!-- Node9&#45;&gt;Node2 -->
<g id="edge9_Node000009_Node000002" class="edge">
<title>Node9&#45;&gt;Node2</title>
<g id="a_edge9_Node000009_Node000002"><a xlink:title=" ">
<path fill="none" stroke="#63b8ff" d="M229.11,-164.66C240.87,-146.77 267.67,-106 283,-82.69"/>
<polygon fill="#63b8ff" stroke="#63b8ff" points="286.04,-84.44 288.61,-74.16 280.19,-80.59 286.04,-84.44"/>
</a>
</g>
</g>
<!-- Node9&#45;&gt;Node8 -->
<g id="edge19_Node000009_Node000008" class="edge">
<title>Node9&#45;&gt;Node8</title>
<g id="a_edge19_Node000009_Node000008"><a xlink:title=" ">
<path fill="none" stroke="#63b8ff" d="M187.27,-169.86C151.62,-164.96 96.55,-153.79 55.3,-129 21.06,-108.43 -11.49,-91.69 4.3,-55 9.45,-43.03 19.59,-32.76 29.13,-25.12"/>
<polygon fill="#63b8ff" stroke="#63b8ff" points="31.29,-27.88 37.23,-19.11 27.11,-22.26 31.29,-27.88"/>
</a>
</g>
</g>
<!-- Node10 -->
<g id="Node000010" class="node">
<title>Node10</title>
<g id="a_Node000010"><a xlink:href="codecs_8hpp.html" target="_top" xlink:title=" ">
<polygon fill="white" stroke="#666666" points="194.8,-129 123.8,-129 123.8,-110 194.8,-110 194.8,-129"/>
<text text-anchor="middle" x="159.3" y="-117" font-family="Helvetica,sans-Serif" font-size="10.00">codecs.hpp</text>
</a>
</g>
</g>
<!-- Node9&#45;&gt;Node10 -->
<g id="edge10_Node000009_Node000010" class="edge">
<title>Node9&#45;&gt;Node10</title>
<g id="a_edge10_Node000009_Node000010"><a xlink:title=" ">
<path fill="none" stroke="#63b8ff" d="M213.02,-164.98C203.46,-157.07 189.02,-145.11 177.52,-135.58"/>
<polygon fill="#63b8ff" stroke="#63b8ff" points="179.7,-132.85 169.77,-129.17 175.24,-138.24 179.7,-132.85"/>
</a>
</g>
</g>
<!-- Node13 -->
<g id="Node000013" class="node">
<title>Node13</title>
<g id="a_Node000013"><a xlink:title=" ">
<polygon fill="#e0e0e0" stroke="#999999" points="246.8,-74 199.8,-74 199.8,-55 246.8,-55 246.8,-74"/>
<text text-anchor="middle" x="223.3" y="-62" font-family="Helvetica,sans-Serif" font-size="10.00">vector</text>
</a>
</g>
</g>
<!-- Node9&#45;&gt;Node13 -->
<g id="edge16_Node000009_Node000013" class="edge">
<title>Node9&#45;&gt;Node13</title>
<g id="a_edge16_Node000009_Node000013"><a xlink:title=" ">
<path fill="none" stroke="#63b8ff" d="M223.3,-164.66C223.3,-147.17 223.3,-107.8 223.3,-84.27"/>
<polygon fill="#63b8ff" stroke="#63b8ff" points="226.8,-84.16 223.3,-74.16 219.8,-84.16 226.8,-84.16"/>
</a>
</g>
</g>
<!-- Node9&#45;&gt;Node15 -->
<g id="edge17_Node000009_Node000015" class="edge">
<title>Node9&#45;&gt;Node15</title>
<g id="a_edge17_Node000009_Node000015"><a xlink:title=" ">
<path fill="none" stroke="#63b8ff" d="M238.56,-164.98C253.43,-156.69 276.28,-143.94 293.72,-134.22"/>
<polygon fill="#63b8ff" stroke="#63b8ff" points="295.73,-137.1 302.76,-129.17 292.32,-130.99 295.73,-137.1"/>
</a>
</g>
</g>
<!-- Node16 -->
<g id="Node000016" class="node">
<title>Node16</title>
<g id="a_Node000016"><a xlink:title=" ">
<polygon fill="#e0e0e0" stroke="#999999" points="105.8,-129 64.8,-129 64.8,-110 105.8,-110 105.8,-129"/>
<text text-anchor="middle" x="85.3" y="-117" font-family="Helvetica,sans-Serif" font-size="10.00">tuple</text>
</a>
</g>
</g>
<!-- Node9&#45;&gt;Node16 -->
<g id="edge18_Node000009_Node000016" class="edge">
<title>Node9&#45;&gt;Node16</title>
<g id="a_edge18_Node000009_Node000016"><a xlink:title=" ">
<path fill="none" stroke="#63b8ff" d="M201.13,-164.98C177.99,-156.1 141.55,-142.1 115.73,-132.19"/>
<polygon fill="#63b8ff" stroke="#63b8ff" points="116.65,-128.79 106.06,-128.47 114.14,-135.33 116.65,-128.79"/>
</a>
</g>
</g>
<!-- Node10&#45;&gt;Node2 -->
<g id="edge11_Node000010_Node000002" class="edge">
<title>Node10&#45;&gt;Node2</title>
<g id="a_edge11_Node000010_Node000002"><a xlink:title=" ">
<path fill="none" stroke="#63b8ff" d="M180.99,-109.98C203.1,-101.3 237.62,-87.75 262.75,-77.88"/>
<polygon fill="#63b8ff" stroke="#63b8ff" points="264.19,-81.08 272.22,-74.17 261.63,-74.57 264.19,-81.08"/>
</a>
</g>
</g>
<!-- Node11 -->
<g id="Node000011" class="node">
<title>Node11</title>
<g id="a_Node000011"><a xlink:title=" ">
<polygon fill="#e0e0e0" stroke="#999999" points="121.3,-74 77.3,-74 77.3,-55 121.3,-55 121.3,-74"/>
<text text-anchor="middle" x="99.3" y="-62" font-family="Helvetica,sans-Serif" font-size="10.00">limits</text>
</a>
</g>
</g>
<!-- Node10&#45;&gt;Node11 -->
<g id="edge12_Node000010_Node000011" class="edge">
<title>Node10&#45;&gt;Node11</title>
<g id="a_edge12_Node000010_Node000011"><a xlink:title=" ">
<path fill="none" stroke="#63b8ff" d="M149.66,-109.98C140.79,-102.15 127.43,-90.34 116.69,-80.86"/>
<polygon fill="#63b8ff" stroke="#63b8ff" points="118.93,-78.17 109.12,-74.17 114.29,-83.41 118.93,-78.17"/>
</a>
</g>
</g>
<!-- Node12 -->
<g id="Node000012" class="node">
<title>Node12</title>
<g id="a_Node000012"><a xlink:title=" ">
<polygon fill="#e0e0e0" stroke="#999999" points="181.3,-74 139.3,-74 139.3,-55 181.3,-55 181.3,-74"/>
<text text-anchor="middle" x="160.3" y="-62" font-family="Helvetica,sans-Serif" font-size="10.00">array</text>
</a>
</g>
</g>
<!-- Node10&#45;&gt;Node12 -->
<g id="edge13_Node000010_Node000012" class="edge">
<title>Node10&#45;&gt;Node12</title>
<g id="a_edge13_Node000010_Node000012"><a xlink:title=" ">
<path fill="none" stroke="#63b8ff" d="M159.47,-109.75C159.6,-102.8 159.78,-92.85 159.95,-84.13"/>
<polygon fill="#63b8ff" stroke="#63b8ff" points="163.45,-84.15 160.14,-74.09 156.45,-84.02 163.45,-84.15"/>
</a>
</g>
</g>
<!-- Node10&#45;&gt;Node13 -->
<g id="edge14_Node000010_Node000013" class="edge">
<title>Node10&#45;&gt;Node13</title>
<g id="a_edge14_Node000010_Node000013"><a xlink:title=" ">
<path fill="none" stroke="#63b8ff" d="M169.58,-109.98C179.14,-102.07 193.58,-90.11 205.08,-80.58"/>
<polygon fill="#63b8ff" stroke="#63b8ff" points="207.36,-83.24 212.83,-74.17 202.9,-77.85 207.36,-83.24"/>
</a>
</g>
</g>
<!-- Node14 -->
<g id="Node000014" class="node">
<title>Node14</title>
<g id="a_Node000014"><a xlink:title=" ">
<polygon fill="#e0e0e0" stroke="#999999" points="58.8,-74 13.8,-74 13.8,-55 58.8,-55 58.8,-74"/>
<text text-anchor="middle" x="36.3" y="-62" font-family="Helvetica,sans-Serif" font-size="10.00">utility</text>
</a>
</g>
</g>
<!-- Node10&#45;&gt;Node14 -->
<g id="edge15_Node000010_Node000014" class="edge">
<title>Node10&#45;&gt;Node14</title>
<g id="a_edge15_Node000010_Node000014"><a xlink:title=" ">
<path fill="none" stroke="#63b8ff" d="M139.54,-109.98C119.57,-101.38 88.5,-87.99 65.65,-78.15"/>
<polygon fill="#63b8ff" stroke="#63b8ff" points="66.99,-74.91 56.42,-74.17 64.22,-81.34 66.99,-74.91"/>
</a>
</g>
</g>
</g>
</svg>
</svg>

<style type='text/css'>
<![CDATA[
[data-mouse-over-selected='false'] { opacity: 0.7; }
[data-mouse-over-selected='true']  { opacity: 1.0; }
]]>
</style>
<script type="application/ecmascript"><![CDATA[
document.addEventListener('DOMContentLoaded', (event) => {
  highlightEdges();
  highlightAdjacentNodes();
});
]]></script>
</svg>
