<?xml version="1.0" encoding="UTF-8" standalone="no"?>
<!DOCTYPE svg PUBLIC "-//W3C//DTD SVG 1.1//EN"
 "http://www.w3.org/Graphics/SVG/1.1/DTD/svg11.dtd">
<!-- Generated by graphviz version 2.43.0 (0)
 -->
<!-- Title: pfc/algorithms.hpp Pages: 1 -->
<svg width="655pt" height="247pt"
 viewBox="0.00 0.00 654.50 247.00" xmlns="http://www.w3.org/2000/svg" xmlns:xlink="http://www.w3.org/1999/xlink">
<g id="graph0" class="graph" transform="scale(1 1) rotate(0) translate(4 243)">
<title>pfc/algorithms.hpp</title>
<!-- Node1 -->
<g id="Node000001" class="node">
<title>Node1</title>
<g id="a_Node000001"><a xlink:title=" ">
<polygon fill="#999999" stroke="#666666" points="479,-239 371,-239 371,-220 479,-220 479,-239"/>
<text text-anchor="middle" x="425" y="-227" font-family="Helvetica,sans-Serif" font-size="10.00">pfc/algorithms.hpp</text>
</a>
</g>
</g>
<!-- Node2 -->
<g id="Node000002" class="node">
<title>Node2</title>
<g id="a_Node000002"><a xlink:href="core_8hpp.html" target="_top" xlink:title=" ">
<polygon fill="white" stroke="#666666" points="175.5,-74 116.5,-74 116.5,-55 175.5,-55 175.5,-74"/>
<text text-anchor="middle" x="146" y="-62" font-family="Helvetica,sans-Serif" font-size="10.00">core.hpp</text>
</a>
</g>
</g>
<!-- Node1&#45;&gt;Node2 -->
<g id="edge1_Node000001_Node000002" class="edge">
<title>Node1&#45;&gt;Node2</title>
<g id="a_edge1_Node000001_Node000002"><a xlink:title=" ">
<path fill="none" stroke="#63b8ff" d="M370.74,-225.85C307.2,-219.5 204.49,-198.39 156,-129 146.91,-115.99 144.83,-97.85 144.78,-84.28"/>
<polygon fill="#63b8ff" stroke="#63b8ff" points="148.28,-84.28 145.11,-74.18 141.29,-84.06 148.28,-84.28"/>
</a>
</g>
</g>
<!-- Node9 -->
<g id="Node000009" class="node">
<title>Node9</title>
<g id="a_Node000009"><a xlink:href="packed_8hpp.html" target="_top" xlink:title=" ">
<polygon fill="white" stroke="#666666" points="336,-184 264,-184 264,-165 336,-165 336,-184"/>
<text text-anchor="middle" x="300" y="-172" font-family="Helvetica,sans-Serif" font-size="10.00">packed.hpp</text>
</a>
</g>
</g>
<!-- Node1&#45;&gt;Node9 -->
<g id="edge8_Node000001_Node000009" class="edge">
<title>Node1&#45;&gt;Node9</title>
<g id="a_edge8_Node000001_Node000009"><a xlink:title=" ">
<path fill="none" stroke="#63b8ff" d="M404.92,-219.98C384.63,-211.38 353.04,-197.99 329.83,-188.15"/>
<polygon fill="#63b8ff" stroke="#63b8ff" points="331.02,-184.85 320.45,-184.17 328.29,-191.3 331.02,-184.85"/>
</a>
</g>
</g>
<!-- Node17 -->
<g id="Node000017" class="node">
<title>Node17</title>
<g id="a_Node000017"><a xlink:title=" ">
<polygon fill="#e0e0e0" stroke="#999999" points="418,-184 354,-184 354,-165 418,-165 418,-184"/>
<text text-anchor="middle" x="386" y="-172" font-family="Helvetica,sans-Serif" font-size="10.00">algorithm</text>
</a>
</g>
</g>
<!-- Node1&#45;&gt;Node17 -->
<g id="edge20_Node000001_Node000017" class="edge">
<title>Node1&#45;&gt;Node17</title>
<g id="a_edge20_Node000001_Node000017"><a xlink:title=" ">
<path fill="none" stroke="#63b8ff" d="M418.56,-219.75C413.11,-212.34 405.14,-201.5 398.44,-192.41"/>
<polygon fill="#63b8ff" stroke="#63b8ff" points="401.07,-190.07 392.32,-184.09 395.43,-194.22 401.07,-190.07"/>
</a>
</g>
</g>
<!-- Node18 -->
<g id="Node000018" class="node">
<title>Node18</title>
<g id="a_Node000018"><a xlink:title=" ">
<polygon fill="#e0e0e0" stroke="#999999" points="492,-184 436,-184 436,-165 492,-165 492,-184"/>
<text text-anchor="middle" x="464" y="-172" font-family="Helvetica,sans-Serif" font-size="10.00">numeric</text>
</a>
</g>
</g>
<!-- Node1&#45;&gt;Node18 -->
<g id="edge21_Node000001_Node000018" class="edge">
<title>Node1&#45;&gt;Node18</title>
<g id="a_edge21_Node000001_Node000018"><a xlink:title=" ">
<path fill="none" stroke="#63b8ff" d="M431.44,-219.75C436.89,-212.34 444.86,-201.5 451.56,-192.41"/>
<polygon fill="#63b8ff" stroke="#63b8ff" points="454.57,-194.22 457.68,-184.09 448.93,-190.07 454.57,-194.22"/>
</a>
</g>
</g>
<!-- Node19 -->
<g id="Node000019" class="node">
<title>Node19</title>
<g id="a_Node000019"><a xlink:title=" ">
<polygon fill="#e0e0e0" stroke="#999999" points="575.5,-184 510.5,-184 510.5,-165 575.5,-165 575.5,-184"/>
<text text-anchor="middle" x="543" y="-172" font-family="Helvetica,sans-Serif" font-size="10.00">functional</text>
</a>
</g>
</g>
<!-- Node1&#45;&gt;Node19 -->
<g id="edge22_Node000001_Node000019" class="edge">
<title>Node1&#45;&gt;Node19</title>
<g id="a_edge22_Node000001_Node000019"><a xlink:title=" ">
<path fill="none" stroke="#63b8ff" d="M443.96,-219.98C463.03,-211.42 492.66,-198.11 514.55,-188.28"/>
<polygon fill="#63b8ff" stroke="#63b8ff" points="516.01,-191.46 523.7,-184.17 513.14,-185.07 516.01,-191.46"/>
</a>
</g>
</g>
<!-- Node20 -->
<g id="Node000020" class="node">
<title>Node20</title>
<g id="a_Node000020"><a xlink:title=" ">
<polygon fill="#e0e0e0" stroke="#999999" points="646.5,-184 593.5,-184 593.5,-165 646.5,-165 646.5,-184"/>
<text text-anchor="middle" x="620" y="-172" font-family="Helvetica,sans-Serif" font-size="10.00">iterator</text>
</a>
</g>
</g>
<!-- Node1&#45;&gt;Node20 -->
<g id="edge23_Node000001_Node000020" class="edge">
<title>Node1&#45;&gt;Node20</title>
<g id="a_edge23_Node000001_Node000020"><a xlink:title=" ">
<path fill="none" stroke="#63b8ff" d="M456.33,-219.98C491.07,-210.54 547.02,-195.33 583.66,-185.38"/>
<polygon fill="#63b8ff" stroke="#63b8ff" points="584.71,-188.72 593.45,-182.72 582.88,-181.96 584.71,-188.72"/>
</a>
</g>
</g>
<!-- Node3 -->
<g id="Node000003" class="node">
<title>Node3</title>
<g id="a_Node000003"><a xlink:title=" ">
<polygon fill="#e0e0e0" stroke="#999999" points="302,-19 252,-19 252,0 302,0 302,-19"/>
<text text-anchor="middle" x="277" y="-7" font-family="Helvetica,sans-Serif" font-size="10.00">cstdint</text>
</a>
</g>
</g>
<!-- Node2&#45;&gt;Node3 -->
<g id="edge2_Node000002_Node000003" class="edge">
<title>Node2&#45;&gt;Node3</title>
<g id="a_edge2_Node000002_Node000003"><a xlink:title=" ">
<path fill="none" stroke="#63b8ff" d="M167.05,-54.98C188.41,-46.34 221.7,-32.87 246.06,-23.02"/>
<polygon fill="#63b8ff" stroke="#63b8ff" points="247.61,-26.17 255.57,-19.17 244.99,-19.68 247.61,-26.17"/>
</a>
</g>
</g>
<!-- Node4 -->
<g id="Node000004" class="node">
<title>Node4</title>
<g id="a_Node000004"><a xlink:title=" ">
<polygon fill="#e0e0e0" stroke="#999999" points="60,-19 0,-19 0,0 60,0 60,-19"/>
<text text-anchor="middle" x="30" y="-7" font-family="Helvetica,sans-Serif" font-size="10.00">concepts</text>
</a>
</g>
</g>
<!-- Node2&#45;&gt;Node4 -->
<g id="edge3_Node000002_Node000004" class="edge">
<title>Node2&#45;&gt;Node4</title>
<g id="a_edge3_Node000002_Node000004"><a xlink:title=" ">
<path fill="none" stroke="#63b8ff" d="M127.36,-54.98C108.7,-46.46 79.75,-33.23 58.26,-23.41"/>
<polygon fill="#63b8ff" stroke="#63b8ff" points="59.53,-20.14 48.98,-19.17 56.62,-26.51 59.53,-20.14"/>
</a>
</g>
</g>
<!-- Node5 -->
<g id="Node000005" class="node">
<title>Node5</title>
<g id="a_Node000005"><a xlink:title=" ">
<polygon fill="#e0e0e0" stroke="#999999" points="107.5,-19 78.5,-19 78.5,0 107.5,0 107.5,-19"/>
<text text-anchor="middle" x="93" y="-7" font-family="Helvetica,sans-Serif" font-size="10.00">bit</text>
</a>
</g>
</g>
<!-- Node2&#45;&gt;Node5 -->
<g id="edge4_Node000002_Node000005" class="edge">
<title>Node2&#45;&gt;Node5</title>
<g id="a_edge4_Node000002_Node000005"><a xlink:title=" ">
<path fill="none" stroke="#63b8ff" d="M137.25,-54.75C129.53,-47.03 118.1,-35.6 108.78,-26.28"/>
<polygon fill="#63b8ff" stroke="#63b8ff" points="111.14,-23.69 101.59,-19.09 106.19,-28.64 111.14,-23.69"/>
</a>
</g>
</g>
<!-- Node6 -->
<g id="Node000006" class="node">
<title>Node6</title>
<g id="a_Node000006"><a xlink:title=" ">
<polygon fill="#e0e0e0" stroke="#999999" points="166,-19 126,-19 126,0 166,0 166,-19"/>
<text text-anchor="middle" x="146" y="-7" font-family="Helvetica,sans-Serif" font-size="10.00">span</text>
</a>
</g>
</g>
<!-- Node2&#45;&gt;Node6 -->
<g id="edge5_Node000002_Node000006" class="edge">
<title>Node2&#45;&gt;Node6</title>
<g id="a_edge5_Node000002_Node000006"><a xlink:title=" ">
<path fill="none" stroke="#63b8ff" d="M146,-54.75C146,-47.8 146,-37.85 146,-29.13"/>
<polygon fill="#63b8ff" stroke="#63b8ff" points="149.5,-29.09 146,-19.09 142.5,-29.09 149.5,-29.09"/>
</a>
</g>
</g>
<!-- Node7 -->
<g id="Node000007" class="node">
<title>Node7</title>
<g id="a_Node000007"><a xlink:title=" ">
<polygon fill="#e0e0e0" stroke="#999999" points="234,-19 184,-19 184,0 234,0 234,-19"/>
<text text-anchor="middle" x="209" y="-7" font-family="Helvetica,sans-Serif" font-size="10.00">ranges</text>
</a>
</g>
</g>
<!-- Node2&#45;&gt;Node7 -->
<g id="edge6_Node000002_Node000007" class="edge">
<title>Node2&#45;&gt;Node7</title>
<g id="a_edge6_Node000002_Node000007"><a xlink:title=" ">
<path fill="none" stroke="#63b8ff" d="M156.12,-54.98C165.44,-47.15 179.47,-35.34 190.74,-25.86"/>
<polygon fill="#63b8ff" stroke="#63b8ff" points="193.29,-28.29 198.69,-19.17 188.79,-22.93 193.29,-28.29"/>
</a>
</g>
</g>
<!-- Node8 -->
<g id="Node000008" class="node">
<title>Node8</title>
<g id="a_Node000008"><a xlink:title=" ">
<polygon fill="#e0e0e0" stroke="#999999" points="430,-19 374,-19 374,0 430,0 430,-19"/>
<text text-anchor="middle" x="402" y="-7" font-family="Helvetica,sans-Serif" font-size="10.00">optional</text>
</a>
</g>
</g>
<!-- Node2&#45;&gt;Node8 -->
<g id="edge7_Node000002_Node000008" class="edge">
<title>Node2&#45;&gt;Node8</title>
<g id="a_edge7_Node000002_Node000008"><a xlink:title=" ">
<path fill="none" stroke="#63b8ff" d="M175.8,-56.97C178.91,-56.3 182.02,-55.63 185,-55 247.7,-41.74 320.72,-26.89 364.06,-18.13"/>
<polygon fill="#63b8ff" stroke="#63b8ff" points="364.78,-21.56 373.89,-16.15 363.39,-14.7 364.78,-21.56"/>
</a>
</g>
</g>
<!-- Node9&#45;&gt;Node2 -->
<g id="edge9_Node000009_Node000002" class="edge">
<title>Node9&#45;&gt;Node2</title>
<g id="a_edge9_Node000009_Node000002"><a xlink:title=" ">
<path fill="none" stroke="#63b8ff" d="M263.8,-169.1C235.58,-163.93 197.11,-152.79 172,-129 159.44,-117.11 152.77,-98.28 149.34,-84.21"/>
<polygon fill="#63b8ff" stroke="#63b8ff" points="152.71,-83.24 147.24,-74.17 145.86,-84.67 152.71,-83.24"/>
</a>
</g>
</g>
<!-- Node9&#45;&gt;Node8 -->
<g id="edge19_Node000009_Node000008" class="edge">
<title>Node9&#45;&gt;Node8</title>
<g id="a_edge19_Node000009_Node000008"><a xlink:title=" ">
<path fill="none" stroke="#63b8ff" d="M329.9,-164.96C359.7,-155.93 402.73,-141.33 415,-129 439.12,-104.77 446.96,-87.38 436,-55 432.44,-44.47 425.28,-34.48 418.45,-26.63"/>
<polygon fill="#63b8ff" stroke="#63b8ff" points="420.99,-24.23 411.61,-19.31 415.87,-29.01 420.99,-24.23"/>
</a>
</g>
</g>
<!-- Node10 -->
<g id="Node000010" class="node">
<title>Node10</title>
<g id="a_Node000010"><a xlink:href="codecs_8hpp.html" target="_top" xlink:title=" ">
<polygon fill="white" stroke="#666666" points="252.5,-129 181.5,-129 181.5,-110 252.5,-110 252.5,-129"/>
<text text-anchor="middle" x="217" y="-117" font-family="Helvetica,sans-Serif" font-size="10.00">codecs.hpp</text>
</a>
</g>
</g>
<!-- Node9&#45;&gt;Node10 -->
<g id="edge10_Node000009_Node000010" class="edge">
<title>Node9&#45;&gt;Node10</title>
<g id="a_edge10_Node000009_Node000010"><a xlink:title=" ">
<path fill="none" stroke="#63b8ff" d="M286.66,-164.98C273.91,-156.84 254.45,-144.41 239.33,-134.76"/>
<polygon fill="#63b8ff" stroke="#63b8ff" points="240.89,-131.6 230.58,-129.17 237.12,-137.5 240.89,-131.6"/>
</a>
</g>
</g>
<!-- Node13 -->
<g id="Node000013" class="node">
<title>Node13</title>
<g id="a_Node000013"><a xlink:title=" ">
<polygon fill="#e0e0e0" stroke="#999999" points="426.5,-74 379.5,-74 379.5,-55 426.5,-55 426.5,-74"/>
<text text-anchor="middle" x="403" y="-62" font-family="Helvetica,sans-Serif" font-size="10.00">vector</text>
</a>
</g>
</g>
<!-- Node9&#45;&gt;Node13 -->
<g id="edge16_Node000009_Node000013" class="edge">
<title>Node9&#45;&gt;Node13</title>
<g id="a_edge16_Node000009_Node000013"><a xlink:title=" ">
<path fill="none" stroke="#63b8ff" d="M336.25,-166.64C357.84,-160.56 383.73,-149.35 398,-129 407.03,-116.13 407.57,-97.96 406.27,-84.36"/>
<polygon fill="#63b8ff" stroke="#63b8ff" points="409.7,-83.66 404.88,-74.22 402.77,-84.6 409.7,-83.66"/>
</a>
</g>
</g>
<!-- Node15 -->
<g id="Node000015" class="node">
<title>Node15</title>
<g id="a_Node000015"><a xlink:title=" ">
<polygon fill="#e0e0e0" stroke="#999999" points="329,-129 271,-129 271,-110 329,-110 329,-129"/>
<text text-anchor="middle" x="300" y="-117" font-family="Helvetica,sans-Serif" font-size="10.00">memory</text>
</a>
</g>
</g>
<!-- Node9&#45;&gt;Node15 -->
<g id="edge17_Node000009_Node000015" class="edge">
<title>Node9&#45;&gt;Node15</title>
<g id="a_edge17_Node000009_Node000015"><a xlink:title=" ">
<path fill="none" stroke="#63b8ff" d="M300,-164.75C300,-157.8 300,-147.85 300,-139.13"/>
<polygon fill="#63b8ff" stroke="#63b8ff" points="303.5,-139.09 300,-129.09 296.5,-139.09 303.5,-139.09"/>
</a>
</g>
</g>
<!-- Node16 -->
<g id="Node000016" class="node">
<title>Node16</title>
<g id="a_Node000016"><a xlink:title=" ">
<polygon fill="#e0e0e0" stroke="#999999" points="388.5,-129 347.5,-129 347.5,-110 388.5,-110 388.5,-129"/>
<text text-anchor="middle" x="368" y="-117" font-family="Helvetica,sans-Serif" font-size="10.00">tuple</text>
</a>
</g>
</g>
<!-- Node9&#45;&gt;Node16 -->
<g id="edge18_Node000009_Node000016" class="edge">
<title>Node9&#45;&gt;Node16</title>
<g id="a_edge18_Node000009_Node000016"><a xlink:title=" ">
<path fill="none" stroke="#63b8ff" d="M310.93,-164.98C321.08,-157.07 336.42,-145.11 348.65,-135.58"/>
<polygon fill="#63b8ff" stroke="#63b8ff" points="351.14,-138.08 356.88,-129.17 346.84,-132.56 351.14,-138.08"/>
</a>
</g>
</g>
<!-- Node10&#45;&gt;Node2 -->
<g id="edge11_Node000010_Node000002" class="edge">
<title>Node10&#45;&gt;Node2</title>
<g id="a_edge11_Node000010_Node000002"><a xlink:title=" ">
<path fill="none" stroke="#63b8ff" d="M205.59,-109.98C194.89,-102 178.66,-89.88 165.84,-80.31"/>
<polygon fill="#63b8ff" stroke="#63b8ff" points="167.72,-77.35 157.61,-74.17 163.53,-82.96 167.72,-77.35"/>
</a>
</g>
</g>
<!-- Node11 -->
<g id="Node000011" class="node">
<title>Node11</title>
<g id="a_Node000011"><a xlink:title=" ">
<polygon fill="#e0e0e0" stroke="#999999" points="238,-74 194,-74 194,-55 238,-55 238,-74"/>
<text text-anchor="middle" x="216" y="-62" font-family="Helvetica,sans-Serif" font-size="10.00">limits</text>
</a>
</g>
</g>
<!-- Node10&#45;&gt;Node11 -->
<g id="edge12_Node000010_Node000011" class="edge">
<title>Node10&#45;&gt;Node11</title>
<g id="a_edge12_Node000010_Node000011"><a xlink:title=" ">
<path fill="none" stroke="#63b8ff" d="M216.83,-109.75C216.7,-102.8 216.52,-92.85 216.35,-84.13"/>
<polygon fill="#63b8ff" stroke="#63b8ff" points="219.85,-84.02 216.16,-74.09 212.85,-84.15 219.85,-84.02"/>
</a>
</g>
</g>
<!-- Node12 -->
<g id="Node000012" class="node">
<title>Node12</title>
<g id="a_Node000012"><a xlink:title=" ">
<polygon fill="#e0e0e0" stroke="#999999" points="298,-74 256,-74 256,-55 298,-55 298,-74"/>
<text text-anchor="middle" x="277" y="-62" font-family="Helvetica,sans-Serif" font-size="10.00">array</text>
</a>
</g>
</g>
<!-- Node10&#45;&gt;Node12 -->
<g id="edge13_Node000010_Node000012" class="edge">
<title>Node10&#45;&gt;Node12</title>
<g id="a_edge13_Node000010_Node000012"><a xlink:title=" ">
<path fill="none" stroke="#63b8ff" d="M226.64,-109.98C235.51,-102.15 248.87,-90.34 259.61,-80.86"/>
<polygon fill="#63b8ff" stroke="#63b8ff" points="262.01,-83.41 267.18,-74.17 257.37,-78.17 262.01,-83.41"/>
</a>
</g>
</g>
<!-- Node10&#45;&gt;Node13 -->
<g id="edge14_Node000010_Node000013" class="edge">
<title>Node10&#45;&gt;Node13</title>
<g id="a_edge14_Node000010_Node000013"><a xlink:title=" ">
<path fill="none" stroke="#63b8ff" d="M246.88,-109.98C280.44,-100.42 334.75,-84.95 369.65,-75"/>
<polygon fill="#63b8ff" stroke="#63b8ff" points="370.73,-78.34 379.39,-72.23 368.81,-71.6 370.73,-78.34"/>
</a>
</g>
</g>
<!-- Node14 -->
<g id="Node000014" class="node">
<title>Node14</title>
<g id="a_Node000014"><a xlink:title=" ">
<polygon fill="#e0e0e0" stroke="#999999" points="361.5,-74 316.5,-74 316.5,-55 361.5,-55 361.5,-74"/>
<text text-anchor="middle" x="339" y="-62" font-family="Helvetica,sans-Serif" font-size="10.00">utility</text>
</a>
</g>
</g>
<!-- Node10&#45;&gt;Node14 -->
<g id="edge15_Node000010_Node000014" class="edge">
<title>Node10&#45;&gt;Node14</title>
<g id="a_edge15_Node000010_Node000014"><a xlink:title=" ">
<path fill="none" stroke="#63b8ff" d="M236.6,-109.98C256.32,-101.42 286.95,-88.11 309.58,-78.28"/>
<polygon fill="#63b8ff" stroke="#63b8ff" points="311.26,-81.37 319.04,-74.17 308.48,-74.94 311.26,-81.37"/>
</a>
</g>
</g>
</g>
</svg>
