<?xml version="1.0" encoding="UTF-8" standalone="no"?>
<!DOCTYPE svg PUBLIC "-//W3C//DTD SVG 1.1//EN"
 "http://www.w3.org/Graphics/SVG/1.1/DTD/svg11.dtd">
<!-- Generated by graphviz version 2.43.0 (0)
 -->
<!-- Title: pfc/codecs.hpp Pages: 1 -->
<!--zoomable 192 -->

<svg id="main" version="1.1" xmlns="http://www.w3.org/2000/svg" xmlns:xlink="http://www.w3.org/1999/xlink" xml:space="preserve" onload="init(evt)">
<style type="text/css"><![CDATA[
.node, .edge {opacity: 0.7;}
.node.selected, .edge.selected {opacity: 1;}
.edge:hover path { stroke: red; }
.edge:hover polygon { stroke: red; fill: red; }
]]></style>

<defs>
  <circle id="rim" cx="0" cy="0" r="7"/>
  <circle id="rim2" cx="0" cy="0" r="3.5"/>
  <g id="zoomPlus">
    <use xlink:href="#rim" fill="#404040"><set attributeName="fill" to="#808080" begin="zoomplus.mouseover" end="zoomplus.mouseout"/></use>
    <path d="M-4,0h8M0,-4v8" fill="none" stroke="white" stroke-width="1.5" pointer-events="none"/>
  </g>
  <g id="zoomMin">
    <use xlink:href="#rim" fill="#404040"><set attributeName="fill" to="#808080" begin="zoomminus.mouseover" end="zoomminus.mouseout"/></use>
    <path d="M-4,0h8" fill="none" stroke="white" stroke-width="1.5" pointer-events="none"/>
  </g>
  <g id="arrowUp" transform="translate(30 24)">
    <use xlink:href="#rim"/>
    <path pointer-events="none" fill="none" stroke="white" stroke-width="1.5" d="M0,-3.0v7 M-2.5,-0.5L0,-3.0L2.5,-0.5"/>
  </g>
  <g id="arrowRight" transform="rotate(90) translate(36 -43)">
    <use xlink:href="#rim"/>
    <path pointer-events="none" fill="none" stroke="white" stroke-width="1.5" d="M0,-3.0v7 M-2.5,-0.5L0,-3.0L2.5,-0.5"/>
  </g>
  <g id="arrowDown" transform="rotate(180) translate(-30 -48)">
    <use xlink:href="#rim"/>
    <path pointer-events="none" fill="none" stroke="white" stroke-width="1.5" d="M0,-3.0v7 M-2.5,-0.5L0,-3.0L2.5,-0.5"/>
  </g>
  <g id="arrowLeft" transform="rotate(270) translate(-36 17)">
    <use xlink:href="#rim"/>
    <path pointer-events="none" fill="none" stroke="white" stroke-width="1.5" d="M0,-3.0v7 M-2.5,-0.5L0,-3.0L2.5,-0.5"/>
  </g>
  <g id="resetDef">
    <use xlink:href="#rim2" fill="#404040"><set attributeName="fill" to="#808080" begin="reset.mouseover" end="reset.mouseout"/></use>
  </g>
</defs>
<script type="application/ecmascript">
var viewWidth = 694;
var viewHeight = 192;
var sectionId = 'dynsection-1';
</script>
<script type="application/ecmascript" xlink:href="svg.min.js"/>
<svg id="graph" class="graph">
<g id="viewport">
<title>pfc/codecs.hpp</title>
<!-- Node1 -->
<g id="Node000001" class="node">
<title>Node1</title>
<g id="a_Node000001"><a xlink:title=" ">
<polygon fill="#999999" stroke="#666666" points="213.9,-184 124.9,-184 124.9,-165 213.9,-165 213.9,-184"/>
<text text-anchor="middle" x="169.4" y="-172" font-family="Helvetica,sans-Serif" font-size="10.00">pfc/codecs.hpp</text>
</a>
</g>
</g>
<!-- Node2 -->
<g id="Node000002" class="node">
<title>Node2</title>
<g id="a_Node000002"><a xlink:href="numeric__codecs_8hpp.html" target="_top" xlink:title=" ">
<polygon fill="white" stroke="#666666" points="154.4,-129 20.4,-129 20.4,-110 154.4,-110 154.4,-129"/>
<text text-anchor="middle" x="87.4" y="-117" font-family="Helvetica,sans-Serif" font-size="10.00">pfc/numeric_codecs.hpp</text>
</a>
</g>
</g>
<!-- Node1&#45;&gt;Node2 -->
<g id="edge1_Node000001_Node000002" class="edge">
<title>Node1&#45;&gt;Node2</title>
<g id="a_edge1_Node000001_Node000002"><a xlink:title=" ">
<path fill="none" stroke="#63b8ff" d="M147.62,-159.42C132.74,-149.81 113.49,-137.37 100.81,-129.17"/>
<polygon fill="#63b8ff" stroke="#63b8ff" points="145.92,-162.5 156.22,-164.98 149.72,-156.62 145.92,-162.5"/>
</a>
</g>
</g>
<!-- Node4 -->
<g id="Node000004" class="node">
<title>Node4</title>
<g id="a_Node000004"><a xlink:href="pfc_8hpp.html" target="_top" xlink:title=" ">
<polygon fill="white" stroke="#666666" points="207.9,-19 136.9,-19 136.9,0 207.9,0 207.9,-19"/>
<text text-anchor="middle" x="172.4" y="-7" font-family="Helvetica,sans-Serif" font-size="10.00">pfc/pfc.hpp</text>
</a>
</g>
</g>
<!-- Node1&#45;&gt;Node4 -->
<g id="edge15_Node000001_Node000004" class="edge">
<title>Node1&#45;&gt;Node4</title>
<g id="a_edge15_Node000001_Node000004"><a xlink:title=" ">
<path fill="none" stroke="#63b8ff" d="M114.77,-165.26C74.29,-157.9 24.04,-145.7 11.4,-129 2.57,-117.34 -9.2,-83.69 13.4,-55 28.6,-35.69 94.79,-22.28 136.83,-15.53"/>
<polygon fill="#63b8ff" stroke="#63b8ff" points="114.36,-168.74 124.82,-167.02 115.57,-161.84 114.36,-168.74"/>
</a>
</g>
</g>
<!-- Node5 -->
<g id="Node000005" class="node">
<title>Node5</title>
<g id="a_Node000005"><a xlink:href="packed_8hpp.html" target="_top" xlink:title=" ">
<polygon fill="white" stroke="#666666" points="296.4,-129 206.4,-129 206.4,-110 296.4,-110 296.4,-129"/>
<text text-anchor="middle" x="251.4" y="-117" font-family="Helvetica,sans-Serif" font-size="10.00">pfc/packed.hpp</text>
</a>
</g>
</g>
<!-- Node1&#45;&gt;Node5 -->
<g id="edge5_Node000001_Node000005" class="edge">
<title>Node1&#45;&gt;Node5</title>
<g id="a_edge5_Node000001_Node000005"><a xlink:title=" ">
<path fill="none" stroke="#63b8ff" d="M191.17,-159.42C206.05,-149.81 225.3,-137.37 237.98,-129.17"/>
<polygon fill="#63b8ff" stroke="#63b8ff" points="189.07,-156.62 182.57,-164.98 192.87,-162.5 189.07,-156.62"/>
</a>
</g>
</g>
<!-- Node9 -->
<g id="Node000009" class="node">
<title>Node9</title>
<g id="a_Node000009"><a xlink:href="succinct_8hpp.html" target="_top" xlink:title=" ">
<polygon fill="white" stroke="#666666" points="685.9,-74 590.9,-74 590.9,-55 685.9,-55 685.9,-74"/>
<text text-anchor="middle" x="638.4" y="-62" font-family="Helvetica,sans-Serif" font-size="10.00">pfc/succinct.hpp</text>
</a>
</g>
</g>
<!-- Node1&#45;&gt;Node9 -->
<g id="edge16_Node000001_Node000009" class="edge">
<title>Node1&#45;&gt;Node9</title>
<g id="a_edge16_Node000001_Node000009"><a xlink:title=" ">
<path fill="none" stroke="#63b8ff" d="M216.6,-162.63C310,-141.12 516.62,-93.54 601.2,-74.07"/>
<polygon fill="#63b8ff" stroke="#63b8ff" points="215.55,-159.28 206.59,-164.94 217.12,-166.1 215.55,-159.28"/>
</a>
</g>
</g>
<!-- Node3 -->
<g id="Node000003" class="node">
<title>Node3</title>
<g id="a_Node000003"><a xlink:href="coordinates_8hpp.html" target="_top" xlink:title=" ">
<polygon fill="white" stroke="#666666" points="143.9,-74 30.9,-74 30.9,-55 143.9,-55 143.9,-74"/>
<text text-anchor="middle" x="87.4" y="-62" font-family="Helvetica,sans-Serif" font-size="10.00">pfc/coordinates.hpp</text>
</a>
</g>
</g>
<!-- Node2&#45;&gt;Node3 -->
<g id="edge2_Node000002_Node000003" class="edge">
<title>Node2&#45;&gt;Node3</title>
<g id="a_edge2_Node000002_Node000003"><a xlink:title=" ">
<path fill="none" stroke="#63b8ff" d="M87.4,-99.66C87.4,-90.93 87.4,-80.99 87.4,-74.09"/>
<polygon fill="#63b8ff" stroke="#63b8ff" points="83.9,-99.75 87.4,-109.75 90.9,-99.75 83.9,-99.75"/>
</a>
</g>
</g>
<!-- Node2&#45;&gt;Node4 -->
<g id="edge4_Node000002_Node000004" class="edge">
<title>Node2&#45;&gt;Node4</title>
<g id="a_edge4_Node000002_Node000004"><a xlink:title=" ">
<path fill="none" stroke="#63b8ff" d="M57.15,-105.54C33.46,-93.51 6.77,-74.56 21.4,-55 47.83,-19.65 101.01,-11.19 136.66,-9.76"/>
<polygon fill="#63b8ff" stroke="#63b8ff" points="55.79,-108.77 66.32,-109.95 58.82,-102.46 55.79,-108.77"/>
</a>
</g>
</g>
<!-- Node3&#45;&gt;Node4 -->
<g id="edge3_Node000003_Node000004" class="edge">
<title>Node3&#45;&gt;Node4</title>
<g id="a_edge3_Node000003_Node000004"><a xlink:title=" ">
<path fill="none" stroke="#63b8ff" d="M109.97,-49.42C125.4,-39.81 145.35,-27.37 158.49,-19.17"/>
<polygon fill="#63b8ff" stroke="#63b8ff" points="107.69,-46.72 101.05,-54.98 111.39,-52.66 107.69,-46.72"/>
</a>
</g>
</g>
<!-- Node5&#45;&gt;Node3 -->
<g id="edge10_Node000005_Node000003" class="edge">
<title>Node5&#45;&gt;Node3</title>
<g id="a_edge10_Node000005_Node000003"><a xlink:title=" ">
<path fill="none" stroke="#63b8ff" d="M215.19,-106.8C184.58,-96.91 141.44,-82.97 113.95,-74.08"/>
<polygon fill="#63b8ff" stroke="#63b8ff" points="214.45,-110.24 225.05,-109.98 216.61,-103.58 214.45,-110.24"/>
</a>
</g>
</g>
<!-- Node5&#45;&gt;Node4 -->
<g id="edge11_Node000005_Node000004" class="edge">
<title>Node5&#45;&gt;Node4</title>
<g id="a_edge11_Node000005_Node000004"><a xlink:title=" ">
<path fill="none" stroke="#63b8ff" d="M226.28,-104.57C214.51,-96.92 201.18,-86.44 192.4,-74 180.26,-56.82 175.27,-31.97 173.4,-19.04"/>
<polygon fill="#63b8ff" stroke="#63b8ff" points="224.52,-107.6 234.87,-109.86 228.19,-101.64 224.52,-107.6"/>
</a>
</g>
</g>
<!-- Node6 -->
<g id="Node000006" class="node">
<title>Node6</title>
<g id="a_Node000006"><a xlink:href="algebraic_8hpp.html" target="_top" xlink:title=" ">
<polygon fill="white" stroke="#666666" points="301.9,-74 200.9,-74 200.9,-55 301.9,-55 301.9,-74"/>
<text text-anchor="middle" x="251.4" y="-62" font-family="Helvetica,sans-Serif" font-size="10.00">pfc/algebraic.hpp</text>
</a>
</g>
</g>
<!-- Node5&#45;&gt;Node6 -->
<g id="edge6_Node000005_Node000006" class="edge">
<title>Node5&#45;&gt;Node6</title>
<g id="a_edge6_Node000005_Node000006"><a xlink:title=" ">
<path fill="none" stroke="#63b8ff" d="M251.4,-99.66C251.4,-90.93 251.4,-80.99 251.4,-74.09"/>
<polygon fill="#63b8ff" stroke="#63b8ff" points="247.9,-99.75 251.4,-109.75 254.9,-99.75 247.9,-99.75"/>
</a>
</g>
</g>
<!-- Node7 -->
<g id="Node000007" class="node">
<title>Node7</title>
<g id="a_Node000007"><a xlink:href="algorithms_8hpp.html" target="_top" xlink:title=" ">
<polygon fill="white" stroke="#666666" points="428.4,-74 320.4,-74 320.4,-55 428.4,-55 428.4,-74"/>
<text text-anchor="middle" x="374.4" y="-62" font-family="Helvetica,sans-Serif" font-size="10.00">pfc/algorithms.hpp</text>
</a>
</g>
</g>
<!-- Node5&#45;&gt;Node7 -->
<g id="edge8_Node000005_Node000007" class="edge">
<title>Node5&#45;&gt;Node7</title>
<g id="a_edge8_Node000005_Node000007"><a xlink:title=" ">
<path fill="none" stroke="#63b8ff" d="M280.64,-105.9C303.36,-96.11 334.27,-82.79 354.27,-74.17"/>
<polygon fill="#63b8ff" stroke="#63b8ff" points="278.96,-102.81 271.16,-109.98 281.73,-109.24 278.96,-102.81"/>
</a>
</g>
</g>
<!-- Node8 -->
<g id="Node000008" class="node">
<title>Node8</title>
<g id="a_Node000008"><a xlink:href="stl__integration_8hpp.html" target="_top" xlink:title=" ">
<polygon fill="white" stroke="#666666" points="572.4,-74 446.4,-74 446.4,-55 572.4,-55 572.4,-74"/>
<text text-anchor="middle" x="509.4" y="-62" font-family="Helvetica,sans-Serif" font-size="10.00">pfc/stl_integration.hpp</text>
</a>
</g>
</g>
<!-- Node5&#45;&gt;Node8 -->
<g id="edge12_Node000005_Node000008" class="edge">
<title>Node5&#45;&gt;Node8</title>
<g id="a_edge12_Node000005_Node000008"><a xlink:title=" ">
<path fill="none" stroke="#63b8ff" d="M302.8,-107.94C351.16,-98.01 422.67,-83.31 467.62,-74.08"/>
<polygon fill="#63b8ff" stroke="#63b8ff" points="301.94,-104.54 292.85,-109.98 303.35,-111.4 301.94,-104.54"/>
</a>
</g>
</g>
<!-- Node5&#45;&gt;Node9 -->
<g id="edge14_Node000005_Node000009" class="edge">
<title>Node5&#45;&gt;Node9</title>
<g id="a_edge14_Node000005_Node000009"><a xlink:title=" ">
<path fill="none" stroke="#63b8ff" d="M306.64,-111.29C372.2,-102.68 484.82,-87.71 581.4,-74 584.47,-73.56 587.63,-73.11 590.82,-72.65"/>
<polygon fill="#63b8ff" stroke="#63b8ff" points="305.99,-107.85 296.53,-112.62 306.9,-114.79 305.99,-107.85"/>
</a>
</g>
</g>
<!-- Node6&#45;&gt;Node4 -->
<g id="edge7_Node000006_Node000004" class="edge">
<title>Node6&#45;&gt;Node4</title>
<g id="a_edge7_Node000006_Node000004"><a xlink:title=" ">
<path fill="none" stroke="#63b8ff" d="M230.01,-49.15C215.73,-39.57 197.42,-27.29 185.32,-19.17"/>
<polygon fill="#63b8ff" stroke="#63b8ff" points="228.45,-52.32 238.7,-54.98 232.35,-46.51 228.45,-52.32"/>
</a>
</g>
</g>
<!-- Node7&#45;&gt;Node4 -->
<g id="edge9_Node000007_Node000004" class="edge">
<title>Node7&#45;&gt;Node4</title>
<g id="a_edge9_Node000007_Node000004"><a xlink:title=" ">
<path fill="none" stroke="#63b8ff" d="M332.23,-52.44C294.42,-42.52 239.7,-28.16 205.1,-19.08"/>
<polygon fill="#63b8ff" stroke="#63b8ff" points="331.38,-55.83 341.94,-54.98 333.16,-49.06 331.38,-55.83"/>
</a>
</g>
</g>
<!-- Node8&#45;&gt;Node4 -->
<g id="edge13_Node000008_Node000004" class="edge">
<title>Node8&#45;&gt;Node4</title>
<g id="a_edge13_Node000008_Node000004"><a xlink:title=" ">
<path fill="none" stroke="#63b8ff" d="M445.18,-53.4C374.88,-42.34 264.67,-25.01 208.27,-16.14"/>
<polygon fill="#63b8ff" stroke="#63b8ff" points="444.83,-56.89 455.25,-54.98 445.92,-49.97 444.83,-56.89"/>
</a>
</g>
</g>
</g>
</svg>

<g id="navigator" transform="translate(0 0)" fill="#404254">
  <rect fill="#f2f5e9" fill-opacity="0.5" stroke="#606060" stroke-width=".5" x="0" y="0" width="60" height="60"/>
  <use id="zoomplus" xlink:href="#zoomPlus" x="17" y="9" onmousedown="handleZoom(evt,'in')"/>
  <use id="zoomminus" xlink:href="#zoomMin" x="42" y="9" onmousedown="handleZoom(evt,'out')"/>
  <use id="reset" xlink:href="#resetDef" x="30" y="36" onmousedown="handleReset()"/>
   <use id="arrowup" xlink:href="#arrowUp" x="0" y="0" onmousedown="handlePan(0,-1)"/>
  <use id="arrowright" xlink:href="#arrowRight" x="0" y="0" onmousedown="handlePan(1,0)"/>
  <use id="arrowdown" xlink:href="#arrowDown" x="0" y="0" onmousedown="handlePan(0,1)"/>
  <use id="arrowleft" xlink:href="#arrowLeft" x="0" y="0" onmousedown="handlePan(-1,0)"/>
</g>
<svg viewBox="0 0 15 15" width="100%" height="30px" preserveAspectRatio="xMaxYMin meet">
 <g id="arrow_out" transform="scale(0.3 0.3)">
  <a xlink:href="codecs_8hpp__dep__incl_org.svg" target="_base">
   <rect id="button" ry="5" rx="5" y="6" x="6" height="38" width="38"
        fill="#f2f5e9" fill-opacity="0.5" stroke="#606060" stroke-width="1.0"/>
   <path id="arrow"
     d="M 11.500037,31.436501 C 11.940474,20.09759 22.043105,11.32322 32.158766,21.979434 L 37.068811,17.246167 C 37.068811,17.246167 37.088388,32 37.088388,32 L 22.160133,31.978069 C 22.160133,31.978069 26.997745,27.140456 26.997745,27.140456 C 18.528582,18.264221 13.291696,25.230495 11.500037,31.436501 z"
     style="fill:#404040;"/>
  </a>
 </g>
</svg>

<style type='text/css'>
<![CDATA[
[data-mouse-over-selected='false'] { opacity: 0.7; }
[data-mouse-over-selected='true']  { opacity: 1.0; }
]]>
</style>
<script type="application/ecmascript"><![CDATA[
document.addEventListener('DOMContentLoaded', (event) => {
  highlightEdges();
  highlightAdjacentNodes();
});
]]></script>
</svg>
