<?xml version="1.0" encoding="UTF-8" standalone="no"?>
<!DOCTYPE svg PUBLIC "-//W3C//DTD SVG 1.1//EN"
 "http://www.w3.org/Graphics/SVG/1.1/DTD/svg11.dtd">
<!-- Generated by graphviz version 2.43.0 (0)
 -->
<!-- Title: pfc/core.hpp Pages: 1 -->
<svg width="1095pt" height="247pt"
 viewBox="0.00 0.00 1095.00 247.00" xmlns="http://www.w3.org/2000/svg" xmlns:xlink="http://www.w3.org/1999/xlink">
<g id="graph0" class="graph" transform="scale(1 1) rotate(0) translate(4 243)">
<title>pfc/core.hpp</title>
<!-- Node1 -->
<g id="Node000001" class="node">
<title>Node1</title>
<g id="a_Node000001"><a xlink:title=" ">
<polygon fill="#999999" stroke="#666666" points="624,-239 547,-239 547,-220 624,-220 624,-239"/>
<text text-anchor="middle" x="585.5" y="-227" font-family="Helvetica,sans-Serif" font-size="10.00">pfc/core.hpp</text>
</a>
</g>
</g>
<!-- Node2 -->
<g id="Node000002" class="node">
<title>Node2</title>
<g id="a_Node000002"><a xlink:href="algebraic_8hpp.html" target="_top" xlink:title=" ">
<polygon fill="white" stroke="#666666" points="101,-74 0,-74 0,-55 101,-55 101,-74"/>
<text text-anchor="middle" x="50.5" y="-62" font-family="Helvetica,sans-Serif" font-size="10.00">pfc/algebraic.hpp</text>
</a>
</g>
</g>
<!-- Node1&#45;&gt;Node2 -->
<g id="edge1_Node000001_Node000002" class="edge">
<title>Node1&#45;&gt;Node2</title>
<g id="a_edge1_Node000001_Node000002"><a xlink:title=" ">
<path fill="none" stroke="#63b8ff" d="M536.38,-225.85C476.6,-221.56 373.17,-210.69 288.5,-184 197.81,-155.42 98.97,-96.1 63.81,-74.02"/>
<polygon fill="#63b8ff" stroke="#63b8ff" points="536.44,-229.36 546.66,-226.55 536.92,-222.38 536.44,-229.36"/>
</a>
</g>
</g>
<!-- Node3 -->
<g id="Node000003" class="node">
<title>Node3</title>
<g id="a_Node000003"><a xlink:href="pfc_8hpp.html" target="_top" xlink:title=" ">
<polygon fill="white" stroke="#666666" points="667,-19 596,-19 596,0 667,0 667,-19"/>
<text text-anchor="middle" x="631.5" y="-7" font-family="Helvetica,sans-Serif" font-size="10.00">pfc/pfc.hpp</text>
</a>
</g>
</g>
<!-- Node1&#45;&gt;Node3 -->
<g id="edge29_Node000001_Node000003" class="edge">
<title>Node1&#45;&gt;Node3</title>
<g id="a_edge29_Node000001_Node000003"><a xlink:title=" ">
<path fill="none" stroke="#63b8ff" d="M634.3,-228.94C713.16,-228.49 863.16,-222.45 896.5,-184 936.39,-138 995.06,-174.09 820.5,-55 774,-23.27 707.74,-14 667.29,-11.39"/>
<polygon fill="#63b8ff" stroke="#63b8ff" points="634.11,-225.44 624.12,-228.97 634.13,-232.44 634.11,-225.44"/>
</a>
</g>
</g>
<!-- Node4 -->
<g id="Node000004" class="node">
<title>Node4</title>
<g id="a_Node000004"><a xlink:href="algorithms_8hpp.html" target="_top" xlink:title=" ">
<polygon fill="white" stroke="#666666" points="227.5,-74 119.5,-74 119.5,-55 227.5,-55 227.5,-74"/>
<text text-anchor="middle" x="173.5" y="-62" font-family="Helvetica,sans-Serif" font-size="10.00">pfc/algorithms.hpp</text>
</a>
</g>
</g>
<!-- Node1&#45;&gt;Node4 -->
<g id="edge3_Node000001_Node000004" class="edge">
<title>Node1&#45;&gt;Node4</title>
<g id="a_edge3_Node000001_Node000004"><a xlink:title=" ">
<path fill="none" stroke="#63b8ff" d="M536.63,-227.3C482.59,-224.37 393.99,-214.79 324.5,-184 261.74,-156.19 202.21,-96.4 181.35,-74.11"/>
<polygon fill="#63b8ff" stroke="#63b8ff" points="536.48,-230.79 546.63,-227.78 536.82,-223.8 536.48,-230.79"/>
</a>
</g>
</g>
<!-- Node5 -->
<g id="Node000005" class="node">
<title>Node5</title>
<g id="a_Node000005"><a xlink:href="arithmetic__coding_8hpp.html" target="_top" xlink:title=" ">
<polygon fill="white" stroke="#666666" points="1087,-129 944,-129 944,-110 1087,-110 1087,-129"/>
<text text-anchor="middle" x="1015.5" y="-117" font-family="Helvetica,sans-Serif" font-size="10.00">pfc/arithmetic_coding.hpp</text>
</a>
</g>
</g>
<!-- Node1&#45;&gt;Node5 -->
<g id="edge5_Node000001_Node000005" class="edge">
<title>Node1&#45;&gt;Node5</title>
<g id="a_edge5_Node000001_Node000005"><a xlink:title=" ">
<path fill="none" stroke="#63b8ff" d="M634.04,-225.24C715.73,-219.25 876.92,-205.14 929.5,-184 961.53,-171.12 992.41,-143.44 1006.91,-129.26"/>
<polygon fill="#63b8ff" stroke="#63b8ff" points="633.73,-221.75 624.01,-225.96 634.24,-228.73 633.73,-221.75"/>
</a>
</g>
</g>
<!-- Node6 -->
<g id="Node000006" class="node">
<title>Node6</title>
<g id="a_Node000006"><a xlink:href="codecs_8hpp.html" target="_top" xlink:title=" ">
<polygon fill="white" stroke="#666666" points="539,-184 450,-184 450,-165 539,-165 539,-184"/>
<text text-anchor="middle" x="494.5" y="-172" font-family="Helvetica,sans-Serif" font-size="10.00">pfc/codecs.hpp</text>
</a>
</g>
</g>
<!-- Node1&#45;&gt;Node6 -->
<g id="edge7_Node000001_Node000006" class="edge">
<title>Node1&#45;&gt;Node6</title>
<g id="a_edge7_Node000001_Node000006"><a xlink:title=" ">
<path fill="none" stroke="#63b8ff" d="M561.8,-214.7C545.22,-205.04 523.59,-192.44 509.39,-184.17"/>
<polygon fill="#63b8ff" stroke="#63b8ff" points="560.48,-217.98 570.88,-219.98 564,-211.93 560.48,-217.98"/>
</a>
</g>
</g>
<!-- Node7 -->
<g id="Node000007" class="node">
<title>Node7</title>
<g id="a_Node000007"><a xlink:href="numeric__codecs_8hpp.html" target="_top" xlink:title=" ">
<polygon fill="white" stroke="#666666" points="656.5,-129 522.5,-129 522.5,-110 656.5,-110 656.5,-129"/>
<text text-anchor="middle" x="589.5" y="-117" font-family="Helvetica,sans-Serif" font-size="10.00">pfc/numeric_codecs.hpp</text>
</a>
</g>
</g>
<!-- Node1&#45;&gt;Node7 -->
<g id="edge27_Node000001_Node000007" class="edge">
<title>Node1&#45;&gt;Node7</title>
<g id="a_edge27_Node000001_Node000007"><a xlink:title=" ">
<path fill="none" stroke="#63b8ff" d="M586.2,-209.48C587.08,-185.84 588.54,-146.5 589.18,-129.16"/>
<polygon fill="#63b8ff" stroke="#63b8ff" points="582.7,-209.54 585.83,-219.66 589.7,-209.8 582.7,-209.54"/>
</a>
</g>
</g>
<!-- Node8 -->
<g id="Node000008" class="node">
<title>Node8</title>
<g id="a_Node000008"><a xlink:href="coordinates_8hpp.html" target="_top" xlink:title=" ">
<polygon fill="white" stroke="#666666" points="731,-74 618,-74 618,-55 731,-55 731,-74"/>
<text text-anchor="middle" x="674.5" y="-62" font-family="Helvetica,sans-Serif" font-size="10.00">pfc/coordinates.hpp</text>
</a>
</g>
</g>
<!-- Node1&#45;&gt;Node8 -->
<g id="edge22_Node000001_Node000008" class="edge">
<title>Node1&#45;&gt;Node8</title>
<g id="a_edge22_Node000001_Node000008"><a xlink:title=" ">
<path fill="none" stroke="#63b8ff" d="M602.7,-212.85C621.49,-194.67 650.85,-162.81 665.5,-129 673.47,-110.61 674.68,-86.69 674.7,-74.1"/>
<polygon fill="#63b8ff" stroke="#63b8ff" points="600.24,-210.36 595.37,-219.77 605.04,-215.45 600.24,-210.36"/>
</a>
</g>
</g>
<!-- Node9 -->
<g id="Node000009" class="node">
<title>Node9</title>
<g id="a_Node000009"><a xlink:href="packed_8hpp.html" target="_top" xlink:title=" ">
<polygon fill="white" stroke="#666666" points="390.5,-129 300.5,-129 300.5,-110 390.5,-110 390.5,-129"/>
<text text-anchor="middle" x="345.5" y="-117" font-family="Helvetica,sans-Serif" font-size="10.00">pfc/packed.hpp</text>
</a>
</g>
</g>
<!-- Node1&#45;&gt;Node9 -->
<g id="edge28_Node000001_Node000009" class="edge">
<title>Node1&#45;&gt;Node9</title>
<g id="a_edge28_Node000001_Node000009"><a xlink:title=" ">
<path fill="none" stroke="#63b8ff" d="M536.36,-224.16C498.22,-219.02 445.17,-207.91 404.5,-184 380.63,-169.96 360.59,-143.3 351.21,-129.41"/>
<polygon fill="#63b8ff" stroke="#63b8ff" points="536.34,-227.68 546.7,-225.45 537.21,-220.73 536.34,-227.68"/>
</a>
</g>
</g>
<!-- Node10 -->
<g id="Node000010" class="node">
<title>Node10</title>
<g id="a_Node000010"><a xlink:href="stl__integration_8hpp.html" target="_top" xlink:title=" ">
<polygon fill="white" stroke="#666666" points="371.5,-74 245.5,-74 245.5,-55 371.5,-55 371.5,-74"/>
<text text-anchor="middle" x="308.5" y="-62" font-family="Helvetica,sans-Serif" font-size="10.00">pfc/stl_integration.hpp</text>
</a>
</g>
</g>
<!-- Node1&#45;&gt;Node10 -->
<g id="edge30_Node000001_Node000010" class="edge">
<title>Node1&#45;&gt;Node10</title>
<g id="a_edge30_Node000001_Node000010"><a xlink:title=" ">
<path fill="none" stroke="#63b8ff" d="M536.88,-223.24C493.54,-217.38 429.03,-205.72 376.5,-184 334.92,-166.81 313,-168.53 291.5,-129 281.68,-110.95 294.08,-86.89 302.3,-74.2"/>
<polygon fill="#63b8ff" stroke="#63b8ff" points="536.51,-226.72 546.88,-224.54 537.42,-219.78 536.51,-226.72"/>
</a>
</g>
</g>
<!-- Node11 -->
<g id="Node000011" class="node">
<title>Node11</title>
<g id="a_Node000011"><a xlink:href="succinct_8hpp.html" target="_top" xlink:title=" ">
<polygon fill="white" stroke="#666666" points="523,-74 428,-74 428,-55 523,-55 523,-74"/>
<text text-anchor="middle" x="475.5" y="-62" font-family="Helvetica,sans-Serif" font-size="10.00">pfc/succinct.hpp</text>
</a>
</g>
</g>
<!-- Node1&#45;&gt;Node11 -->
<g id="edge33_Node000001_Node000011" class="edge">
<title>Node1&#45;&gt;Node11</title>
<g id="a_edge33_Node000001_Node000011"><a xlink:title=" ">
<path fill="none" stroke="#63b8ff" d="M536.57,-227.62C503.64,-224.15 462.39,-213.62 440.5,-184 414.62,-148.98 451.79,-94.99 468.29,-74.13"/>
<polygon fill="#63b8ff" stroke="#63b8ff" points="536.66,-231.14 546.93,-228.51 537.27,-224.17 536.66,-231.14"/>
</a>
</g>
</g>
<!-- Node12 -->
<g id="Node000012" class="node">
<title>Node12</title>
<g id="a_Node000012"><a xlink:href="huffman_8hpp.html" target="_top" xlink:title=" ">
<polygon fill="white" stroke="#666666" points="808.5,-129 712.5,-129 712.5,-110 808.5,-110 808.5,-129"/>
<text text-anchor="middle" x="760.5" y="-117" font-family="Helvetica,sans-Serif" font-size="10.00">pfc/huffman.hpp</text>
</a>
</g>
</g>
<!-- Node1&#45;&gt;Node12 -->
<g id="edge23_Node000001_Node000012" class="edge">
<title>Node1&#45;&gt;Node12</title>
<g id="a_edge23_Node000001_Node000012"><a xlink:title=" ">
<path fill="none" stroke="#63b8ff" d="M605.8,-214.23C624.82,-201.03 654.19,-181.07 680.5,-165 702.06,-151.83 727.7,-137.85 744.03,-129.15"/>
<polygon fill="#63b8ff" stroke="#63b8ff" points="603.79,-211.36 597.59,-219.96 607.79,-217.11 603.79,-211.36"/>
</a>
</g>
</g>
<!-- Node13 -->
<g id="Node000013" class="node">
<title>Node13</title>
<g id="a_Node000013"><a xlink:href="lz77_8hpp.html" target="_top" xlink:title=" ">
<polygon fill="white" stroke="#666666" points="765.5,-184 689.5,-184 689.5,-165 765.5,-165 765.5,-184"/>
<text text-anchor="middle" x="727.5" y="-172" font-family="Helvetica,sans-Serif" font-size="10.00">pfc/lz77.hpp</text>
</a>
</g>
</g>
<!-- Node1&#45;&gt;Node13 -->
<g id="edge25_Node000001_Node000013" class="edge">
<title>Node1&#45;&gt;Node13</title>
<g id="a_edge25_Node000001_Node000013"><a xlink:title=" ">
<path fill="none" stroke="#63b8ff" d="M617.86,-216.42C644.21,-206.59 680.76,-192.95 704.27,-184.17"/>
<polygon fill="#63b8ff" stroke="#63b8ff" points="616.46,-213.21 608.31,-219.98 618.91,-219.77 616.46,-213.21"/>
</a>
</g>
</g>
<!-- Node14 -->
<g id="Node000014" class="node">
<title>Node14</title>
<g id="a_Node000014"><a xlink:href="stream__io_8hpp.html" target="_top" xlink:title=" ">
<polygon fill="white" stroke="#666666" points="887.5,-184 783.5,-184 783.5,-165 887.5,-165 887.5,-184"/>
<text text-anchor="middle" x="835.5" y="-172" font-family="Helvetica,sans-Serif" font-size="10.00">pfc/stream_io.hpp</text>
</a>
</g>
</g>
<!-- Node1&#45;&gt;Node14 -->
<g id="edge31_Node000001_Node000014" class="edge">
<title>Node1&#45;&gt;Node14</title>
<g id="a_edge31_Node000001_Node000014"><a xlink:title=" ">
<path fill="none" stroke="#63b8ff" d="M633.95,-218.23C680.92,-208.27 751.33,-193.34 795.28,-184.03"/>
<polygon fill="#63b8ff" stroke="#63b8ff" points="633.07,-214.84 624.01,-220.33 634.52,-221.68 633.07,-214.84"/>
</a>
</g>
</g>
<!-- Node2&#45;&gt;Node3 -->
<g id="edge2_Node000002_Node000003" class="edge">
<title>Node2&#45;&gt;Node3</title>
<g id="a_edge2_Node000002_Node000003"><a xlink:title=" ">
<path fill="none" stroke="#63b8ff" d="M111.32,-54.97C300.13,-33.8 512.7,-18.51 595.74,-12.87"/>
<polygon fill="#63b8ff" stroke="#63b8ff" points="110.76,-51.51 101.21,-56.11 111.54,-58.47 110.76,-51.51"/>
</a>
</g>
</g>
<!-- Node4&#45;&gt;Node3 -->
<g id="edge4_Node000004_Node000003" class="edge">
<title>Node4&#45;&gt;Node3</title>
<g id="a_edge4_Node000004_Node000003"><a xlink:title=" ">
<path fill="none" stroke="#63b8ff" d="M237.73,-54.87C376.19,-37.83 528.1,-21.44 595.79,-14.26"/>
<polygon fill="#63b8ff" stroke="#63b8ff" points="237.28,-51.4 227.79,-56.1 238.14,-58.35 237.28,-51.4"/>
</a>
</g>
</g>
<!-- Node5&#45;&gt;Node3 -->
<g id="edge6_Node000005_Node000003" class="edge">
<title>Node5&#45;&gt;Node3</title>
<g id="a_edge6_Node000005_Node000003"><a xlink:title=" ">
<path fill="none" stroke="#63b8ff" d="M999.37,-102.74C983.14,-87.87 956.67,-66.23 929.5,-55 840.31,-18.12 724.9,-11.28 667.38,-10.34"/>
<polygon fill="#63b8ff" stroke="#63b8ff" points="997.2,-105.51 1006.88,-109.81 1002,-100.41 997.2,-105.51"/>
</a>
</g>
</g>
<!-- Node6&#45;&gt;Node3 -->
<g id="edge20_Node000006_Node000003" class="edge">
<title>Node6&#45;&gt;Node3</title>
<g id="a_edge20_Node000006_Node000003"><a xlink:title=" ">
<path fill="none" stroke="#63b8ff" d="M497.19,-154.68C499.77,-141.36 504.63,-123.53 513.5,-110 540.98,-68.1 591.28,-34.32 616.39,-19.16"/>
<polygon fill="#63b8ff" stroke="#63b8ff" points="493.73,-154.17 495.53,-164.61 500.63,-155.33 493.73,-154.17"/>
</a>
</g>
</g>
<!-- Node6&#45;&gt;Node7 -->
<g id="edge8_Node000006_Node000007" class="edge">
<title>Node6&#45;&gt;Node7</title>
<g id="a_edge8_Node000006_Node000007"><a xlink:title=" ">
<path fill="none" stroke="#63b8ff" d="M518.76,-159.97C536.13,-150.28 558.99,-137.52 573.96,-129.17"/>
<polygon fill="#63b8ff" stroke="#63b8ff" points="516.79,-157.06 509.76,-164.98 520.2,-163.17 516.79,-157.06"/>
</a>
</g>
</g>
<!-- Node6&#45;&gt;Node9 -->
<g id="edge12_Node000006_Node000009" class="edge">
<title>Node6&#45;&gt;Node9</title>
<g id="a_edge12_Node000006_Node000009"><a xlink:title=" ">
<path fill="none" stroke="#63b8ff" d="M460.91,-161.55C433.24,-151.71 394.66,-137.98 369.88,-129.17"/>
<polygon fill="#63b8ff" stroke="#63b8ff" points="459.97,-164.93 470.56,-164.98 462.31,-158.34 459.97,-164.93"/>
</a>
</g>
</g>
<!-- Node6&#45;&gt;Node11 -->
<g id="edge21_Node000006_Node000011" class="edge">
<title>Node6&#45;&gt;Node11</title>
<g id="a_edge21_Node000006_Node000011"><a xlink:title=" ">
<path fill="none" stroke="#63b8ff" d="M487.69,-155.12C485.02,-147.19 482.2,-137.75 480.5,-129 476.75,-109.68 475.8,-86.53 475.57,-74.21"/>
<polygon fill="#63b8ff" stroke="#63b8ff" points="484.47,-156.53 491.11,-164.79 491.07,-154.19 484.47,-156.53"/>
</a>
</g>
</g>
<!-- Node7&#45;&gt;Node3 -->
<g id="edge11_Node000007_Node000003" class="edge">
<title>Node7&#45;&gt;Node3</title>
<g id="a_edge11_Node000007_Node000003"><a xlink:title=" ">
<path fill="none" stroke="#63b8ff" d="M594.12,-99.76C597.52,-86.94 602.57,-69.69 608.5,-55 613.71,-42.1 621.39,-27.94 626.42,-19.14"/>
<polygon fill="#63b8ff" stroke="#63b8ff" points="590.67,-99.14 591.58,-109.7 597.45,-100.88 590.67,-99.14"/>
</a>
</g>
</g>
<!-- Node7&#45;&gt;Node8 -->
<g id="edge9_Node000007_Node000008" class="edge">
<title>Node7&#45;&gt;Node8</title>
<g id="a_edge9_Node000007_Node000008"><a xlink:title=" ">
<path fill="none" stroke="#63b8ff" d="M612.07,-104.42C627.5,-94.81 647.45,-82.37 660.59,-74.17"/>
<polygon fill="#63b8ff" stroke="#63b8ff" points="609.79,-101.72 603.16,-109.98 613.49,-107.66 609.79,-101.72"/>
</a>
</g>
</g>
<!-- Node8&#45;&gt;Node3 -->
<g id="edge10_Node000008_Node000003" class="edge">
<title>Node8&#45;&gt;Node3</title>
<g id="a_edge10_Node000008_Node000003"><a xlink:title=" ">
<path fill="none" stroke="#63b8ff" d="M661.08,-46.96C653.59,-37.72 644.56,-26.6 638.47,-19.09"/>
<polygon fill="#63b8ff" stroke="#63b8ff" points="658.38,-49.19 667.4,-54.75 663.82,-44.78 658.38,-49.19"/>
</a>
</g>
</g>
<!-- Node9&#45;&gt;Node2 -->
<g id="edge13_Node000009_Node000002" class="edge">
<title>Node9&#45;&gt;Node2</title>
<g id="a_edge13_Node000009_Node000002"><a xlink:title=" ">
<path fill="none" stroke="#63b8ff" d="M290.39,-108.6C235.02,-98.65 150.59,-83.48 98.07,-74.05"/>
<polygon fill="#63b8ff" stroke="#63b8ff" points="289.91,-112.07 300.37,-110.39 291.15,-105.18 289.91,-112.07"/>
</a>
</g>
</g>
<!-- Node9&#45;&gt;Node3 -->
<g id="edge16_Node000009_Node000003" class="edge">
<title>Node9&#45;&gt;Node3</title>
<g id="a_edge16_Node000009_Node000003"><a xlink:title=" ">
<path fill="none" stroke="#63b8ff" d="M359.61,-102.19C373.2,-87.55 395.11,-66.62 418.5,-55 476.36,-26.27 551.96,-16.06 595.78,-12.46"/>
<polygon fill="#63b8ff" stroke="#63b8ff" points="356.7,-100.19 352.61,-109.97 361.9,-104.87 356.7,-100.19"/>
</a>
</g>
</g>
<!-- Node9&#45;&gt;Node4 -->
<g id="edge14_Node000009_Node000004" class="edge">
<title>Node9&#45;&gt;Node4</title>
<g id="a_edge14_Node000009_Node000004"><a xlink:title=" ">
<path fill="none" stroke="#63b8ff" d="M307.94,-106.93C275.82,-97.03 230.31,-83.01 201.35,-74.08"/>
<polygon fill="#63b8ff" stroke="#63b8ff" points="307.28,-110.38 317.87,-109.98 309.34,-103.69 307.28,-110.38"/>
</a>
</g>
</g>
<!-- Node9&#45;&gt;Node8 -->
<g id="edge15_Node000009_Node000008" class="edge">
<title>Node9&#45;&gt;Node8</title>
<g id="a_edge15_Node000009_Node000008"><a xlink:title=" ">
<path fill="none" stroke="#63b8ff" d="M400.47,-109.65C461.97,-99.74 560.9,-83.8 621.56,-74.03"/>
<polygon fill="#63b8ff" stroke="#63b8ff" points="399.87,-106.2 390.56,-111.24 400.99,-113.11 399.87,-106.2"/>
</a>
</g>
</g>
<!-- Node9&#45;&gt;Node10 -->
<g id="edge17_Node000009_Node000010" class="edge">
<title>Node9&#45;&gt;Node10</title>
<g id="a_edge17_Node000009_Node000010"><a xlink:title=" ">
<path fill="none" stroke="#63b8ff" d="M333.55,-101.39C327.19,-92.27 319.63,-81.45 314.5,-74.09"/>
<polygon fill="#63b8ff" stroke="#63b8ff" points="330.8,-103.55 339.39,-109.75 336.54,-99.55 330.8,-103.55"/>
</a>
</g>
</g>
<!-- Node9&#45;&gt;Node11 -->
<g id="edge19_Node000009_Node000011" class="edge">
<title>Node9&#45;&gt;Node11</title>
<g id="a_edge19_Node000009_Node000011"><a xlink:title=" ">
<path fill="none" stroke="#63b8ff" d="M375.77,-106.16C399.84,-96.35 432.9,-82.87 454.23,-74.17"/>
<polygon fill="#63b8ff" stroke="#63b8ff" points="374.33,-102.97 366.39,-109.98 376.97,-109.45 374.33,-102.97"/>
</a>
</g>
</g>
<!-- Node10&#45;&gt;Node3 -->
<g id="edge18_Node000010_Node000003" class="edge">
<title>Node10&#45;&gt;Node3</title>
<g id="a_edge18_Node000010_Node000003"><a xlink:title=" ">
<path fill="none" stroke="#63b8ff" d="M370.38,-53.35C437.2,-42.38 541.37,-25.29 595.73,-16.37"/>
<polygon fill="#63b8ff" stroke="#63b8ff" points="369.7,-49.91 360.4,-54.98 370.83,-56.82 369.7,-49.91"/>
</a>
</g>
</g>
<!-- Node12&#45;&gt;Node3 -->
<g id="edge24_Node000012_Node000003" class="edge">
<title>Node12&#45;&gt;Node3</title>
<g id="a_edge24_Node000012_Node000003"><a xlink:title=" ">
<path fill="none" stroke="#63b8ff" d="M758.56,-100.04C756.2,-86.11 750.99,-67.34 739.5,-55 720.43,-34.52 690.54,-23.19 667.03,-17.09"/>
<polygon fill="#63b8ff" stroke="#63b8ff" points="755.09,-100.53 759.91,-109.97 762.03,-99.59 755.09,-100.53"/>
</a>
</g>
</g>
<!-- Node13&#45;&gt;Node3 -->
<g id="edge26_Node000013_Node000003" class="edge">
<title>Node13&#45;&gt;Node3</title>
<g id="a_edge26_Node000013_Node000003"><a xlink:title=" ">
<path fill="none" stroke="#63b8ff" d="M771.92,-161.64C799.63,-151.6 828.17,-134.83 817.5,-110 792.05,-50.78 713.68,-25.96 667.18,-16.23"/>
<polygon fill="#63b8ff" stroke="#63b8ff" points="770.57,-158.4 762.21,-164.91 772.81,-165.03 770.57,-158.4"/>
</a>
</g>
</g>
<!-- Node14&#45;&gt;Node3 -->
<g id="edge32_Node000014_Node000003" class="edge">
<title>Node14&#45;&gt;Node3</title>
<g id="a_edge32_Node000014_Node000003"><a xlink:title=" ">
<path fill="none" stroke="#63b8ff" d="M837.66,-154.59C838.47,-141.7 838.25,-124.42 833.5,-110 824.21,-81.78 819.76,-72.16 795.5,-55 756.96,-27.74 702.53,-17.17 667.13,-13.08"/>
<polygon fill="#63b8ff" stroke="#63b8ff" points="834.17,-154.33 836.77,-164.6 841.14,-154.95 834.17,-154.33"/>
</a>
</g>
</g>
</g>
</svg>
