<?xml version="1.0" encoding="UTF-8" standalone="no"?>
<!DOCTYPE svg PUBLIC "-//W3C//DTD SVG 1.1//EN"
 "http://www.w3.org/Graphics/SVG/1.1/DTD/svg11.dtd">
<!-- Generated by graphviz version 2.43.0 (0)
 -->
<!-- Title: pfc/error_handling.hpp Pages: 1 -->
<svg width="520pt" height="137pt"
 viewBox="0.00 0.00 519.50 137.00" xmlns="http://www.w3.org/2000/svg" xmlns:xlink="http://www.w3.org/1999/xlink">
<g id="graph0" class="graph" transform="scale(1 1) rotate(0) translate(4 133)">
<title>pfc/error_handling.hpp</title>
<!-- Node1 -->
<g id="Node000001" class="node">
<title>Node1</title>
<g id="a_Node000001"><a xlink:title=" ">
<polygon fill="#999999" stroke="#666666" points="310.5,-129 184.5,-129 184.5,-110 310.5,-110 310.5,-129"/>
<text text-anchor="middle" x="247.5" y="-117" font-family="Helvetica,sans-Serif" font-size="10.00">pfc/error_handling.hpp</text>
</a>
</g>
</g>
<!-- Node2 -->
<g id="Node000002" class="node">
<title>Node2</title>
<g id="a_Node000002"><a xlink:href="arithmetic__coding_8hpp.html" target="_top" xlink:title=" ">
<polygon fill="white" stroke="#666666" points="143,-74 0,-74 0,-55 143,-55 143,-74"/>
<text text-anchor="middle" x="71.5" y="-62" font-family="Helvetica,sans-Serif" font-size="10.00">pfc/arithmetic_coding.hpp</text>
</a>
</g>
</g>
<!-- Node1&#45;&gt;Node2 -->
<g id="edge1_Node000001_Node000002" class="edge">
<title>Node1&#45;&gt;Node2</title>
<g id="a_edge1_Node000001_Node000002"><a xlink:title=" ">
<path fill="none" stroke="#63b8ff" d="M209.5,-107.06C176.6,-97.15 129.76,-83.04 100,-74.08"/>
<polygon fill="#63b8ff" stroke="#63b8ff" points="208.64,-110.45 219.22,-109.98 210.66,-103.75 208.64,-110.45"/>
</a>
</g>
</g>
<!-- Node3 -->
<g id="Node000003" class="node">
<title>Node3</title>
<g id="a_Node000003"><a xlink:href="pfc_8hpp.html" target="_top" xlink:title=" ">
<polygon fill="white" stroke="#666666" points="283,-19 212,-19 212,0 283,0 283,-19"/>
<text text-anchor="middle" x="247.5" y="-7" font-family="Helvetica,sans-Serif" font-size="10.00">pfc/pfc.hpp</text>
</a>
</g>
</g>
<!-- Node1&#45;&gt;Node3 -->
<g id="edge7_Node000001_Node000003" class="edge">
<title>Node1&#45;&gt;Node3</title>
<g id="a_edge7_Node000001_Node000003"><a xlink:title=" ">
<path fill="none" stroke="#63b8ff" d="M220.26,-104.57C208.85,-97.17 196.8,-86.91 190.5,-74 179.33,-51.1 208.9,-30.31 229.51,-19.13"/>
<polygon fill="#63b8ff" stroke="#63b8ff" points="218.77,-107.75 229.15,-109.88 222.36,-101.75 218.77,-107.75"/>
</a>
</g>
</g>
<!-- Node4 -->
<g id="Node000004" class="node">
<title>Node4</title>
<g id="a_Node000004"><a xlink:href="huffman_8hpp.html" target="_top" xlink:title=" ">
<polygon fill="white" stroke="#666666" points="295.5,-74 199.5,-74 199.5,-55 295.5,-55 295.5,-74"/>
<text text-anchor="middle" x="247.5" y="-62" font-family="Helvetica,sans-Serif" font-size="10.00">pfc/huffman.hpp</text>
</a>
</g>
</g>
<!-- Node1&#45;&gt;Node4 -->
<g id="edge3_Node000001_Node000004" class="edge">
<title>Node1&#45;&gt;Node4</title>
<g id="a_edge3_Node000001_Node000004"><a xlink:title=" ">
<path fill="none" stroke="#63b8ff" d="M247.5,-99.66C247.5,-90.93 247.5,-80.99 247.5,-74.09"/>
<polygon fill="#63b8ff" stroke="#63b8ff" points="244,-99.75 247.5,-109.75 251,-99.75 244,-99.75"/>
</a>
</g>
</g>
<!-- Node5 -->
<g id="Node000005" class="node">
<title>Node5</title>
<g id="a_Node000005"><a xlink:href="lz77_8hpp.html" target="_top" xlink:title=" ">
<polygon fill="white" stroke="#666666" points="389.5,-74 313.5,-74 313.5,-55 389.5,-55 389.5,-74"/>
<text text-anchor="middle" x="351.5" y="-62" font-family="Helvetica,sans-Serif" font-size="10.00">pfc/lz77.hpp</text>
</a>
</g>
</g>
<!-- Node1&#45;&gt;Node5 -->
<g id="edge5_Node000001_Node000005" class="edge">
<title>Node1&#45;&gt;Node5</title>
<g id="a_edge5_Node000001_Node000005"><a xlink:title=" ">
<path fill="none" stroke="#63b8ff" d="M273.27,-105.37C292.37,-95.63 317.87,-82.64 334.49,-74.17"/>
<polygon fill="#63b8ff" stroke="#63b8ff" points="271.53,-102.33 264.21,-109.98 274.71,-108.56 271.53,-102.33"/>
</a>
</g>
</g>
<!-- Node6 -->
<g id="Node000006" class="node">
<title>Node6</title>
<g id="a_Node000006"><a xlink:href="stream__io_8hpp.html" target="_top" xlink:title=" ">
<polygon fill="white" stroke="#666666" points="511.5,-74 407.5,-74 407.5,-55 511.5,-55 511.5,-74"/>
<text text-anchor="middle" x="459.5" y="-62" font-family="Helvetica,sans-Serif" font-size="10.00">pfc/stream_io.hpp</text>
</a>
</g>
</g>
<!-- Node1&#45;&gt;Node6 -->
<g id="edge8_Node000001_Node000006" class="edge">
<title>Node1&#45;&gt;Node6</title>
<g id="a_edge8_Node000001_Node000006"><a xlink:title=" ">
<path fill="none" stroke="#63b8ff" d="M291.5,-107.5C331.19,-97.58 388.78,-83.18 425.17,-74.08"/>
<polygon fill="#63b8ff" stroke="#63b8ff" points="290.41,-104.16 281.56,-109.98 292.11,-110.95 290.41,-104.16"/>
</a>
</g>
</g>
<!-- Node2&#45;&gt;Node3 -->
<g id="edge2_Node000002_Node000003" class="edge">
<title>Node2&#45;&gt;Node3</title>
<g id="a_edge2_Node000002_Node000003"><a xlink:title=" ">
<path fill="none" stroke="#63b8ff" d="M109.5,-52.06C142.4,-42.15 189.24,-28.04 219,-19.08"/>
<polygon fill="#63b8ff" stroke="#63b8ff" points="108.34,-48.75 99.78,-54.98 110.36,-55.45 108.34,-48.75"/>
</a>
</g>
</g>
<!-- Node4&#45;&gt;Node3 -->
<g id="edge4_Node000004_Node000003" class="edge">
<title>Node4&#45;&gt;Node3</title>
<g id="a_edge4_Node000004_Node000003"><a xlink:title=" ">
<path fill="none" stroke="#63b8ff" d="M247.5,-44.66C247.5,-35.93 247.5,-25.99 247.5,-19.09"/>
<polygon fill="#63b8ff" stroke="#63b8ff" points="244,-44.75 247.5,-54.75 251,-44.75 244,-44.75"/>
</a>
</g>
</g>
<!-- Node5&#45;&gt;Node3 -->
<g id="edge6_Node000005_Node000003" class="edge">
<title>Node5&#45;&gt;Node3</title>
<g id="a_edge6_Node000005_Node000003"><a xlink:title=" ">
<path fill="none" stroke="#63b8ff" d="M325.73,-50.37C306.63,-40.63 281.13,-27.64 264.51,-19.17"/>
<polygon fill="#63b8ff" stroke="#63b8ff" points="324.29,-53.56 334.79,-54.98 327.47,-47.33 324.29,-53.56"/>
</a>
</g>
</g>
<!-- Node6&#45;&gt;Node3 -->
<g id="edge9_Node000006_Node000003" class="edge">
<title>Node6&#45;&gt;Node3</title>
<g id="a_edge9_Node000006_Node000003"><a xlink:title=" ">
<path fill="none" stroke="#63b8ff" d="M415.5,-52.5C375.81,-42.58 318.22,-28.18 281.83,-19.08"/>
<polygon fill="#63b8ff" stroke="#63b8ff" points="414.89,-55.95 425.44,-54.98 416.59,-49.16 414.89,-55.95"/>
</a>
</g>
</g>
</g>
</svg>
