<?xml version="1.0" encoding="UTF-8" standalone="no"?>
<!DOCTYPE svg PUBLIC "-//W3C//DTD SVG 1.1//EN"
 "http://www.w3.org/Graphics/SVG/1.1/DTD/svg11.dtd">
<!-- Generated by graphviz version 2.43.0 (0)
 -->
<!-- Title: Graphical Class Hierarchy Pages: 1 -->
<svg width="417pt" height="64pt"
 viewBox="0.00 0.00 417.00 64.00" xmlns="http://www.w3.org/2000/svg" xmlns:xlink="http://www.w3.org/1999/xlink">
<g id="graph0" class="graph" transform="scale(1 1) rotate(0) translate(4 60)">
<title>Graphical Class Hierarchy</title>
<!-- Node0 -->
<g id="Node000000" class="node">
<title>Node0</title>
<g id="a_Node000000"><a xlink:title=" ">
<polygon fill="#e0e0e0" stroke="#999999" points="88,-37 0,-37 0,-18 88,-18 88,-37"/>
<text text-anchor="middle" x="44" y="-25" font-family="Helvetica,sans-Serif" font-size="10.00">std::streambuf</text>
</a>
</g>
</g>
<!-- Node1 -->
<g id="Node000001" class="node">
<title>Node1</title>
<g id="a_Node000001"><a xlink:href="classpfc_1_1bit__streambuf.html" target="_top" xlink:title=" ">
<polygon fill="white" stroke="#666666" points="230,-37 124,-37 124,-18 230,-18 230,-37"/>
<text text-anchor="middle" x="177" y="-25" font-family="Helvetica,sans-Serif" font-size="10.00">pfc::bit_streambuf</text>
</a>
</g>
</g>
<!-- Node0&#45;&gt;Node1 -->
<g id="edge3_Node000000_Node000001" class="edge">
<title>Node0&#45;&gt;Node1</title>
<g id="a_edge3_Node000000_Node000001"><a xlink:title=" ">
<path fill="none" stroke="#63b8ff" d="M98.29,-27.5C106.67,-27.5 115.32,-27.5 123.67,-27.5"/>
<polygon fill="#63b8ff" stroke="#63b8ff" points="98.26,-24 88.26,-27.5 98.26,-31 98.26,-24"/>
</a>
</g>
</g>
<!-- Node2 -->
<g id="Node000002" class="node">
<title>Node2</title>
<g id="a_Node000002"><a xlink:href="classpfc_1_1input__bit__streambuf.html" target="_top" xlink:title=" ">
<polygon fill="white" stroke="#666666" points="405.5,-56 269.5,-56 269.5,-37 405.5,-37 405.5,-56"/>
<text text-anchor="middle" x="337.5" y="-44" font-family="Helvetica,sans-Serif" font-size="10.00">pfc::input_bit_streambuf</text>
</a>
</g>
</g>
<!-- Node1&#45;&gt;Node2 -->
<g id="edge4_Node000001_Node000002" class="edge">
<title>Node1&#45;&gt;Node2</title>
<g id="a_edge4_Node000001_Node000002"><a xlink:title=" ">
<path fill="none" stroke="#63b8ff" d="M240.44,-34.98C249.89,-36.12 259.68,-37.29 269.24,-38.44"/>
<polygon fill="#63b8ff" stroke="#63b8ff" points="240.68,-31.49 230.34,-33.77 239.85,-38.44 240.68,-31.49"/>
</a>
</g>
</g>
<!-- Node3 -->
<g id="Node000003" class="node">
<title>Node3</title>
<g id="a_Node000003"><a xlink:href="classpfc_1_1output__bit__streambuf.html" target="_top" xlink:title=" ">
<polygon fill="white" stroke="#666666" points="409,-19 266,-19 266,0 409,0 409,-19"/>
<text text-anchor="middle" x="337.5" y="-7" font-family="Helvetica,sans-Serif" font-size="10.00">pfc::output_bit_streambuf</text>
</a>
</g>
</g>
<!-- Node1&#45;&gt;Node3 -->
<g id="edge5_Node000001_Node000003" class="edge">
<title>Node1&#45;&gt;Node3</title>
<g id="a_edge5_Node000001_Node000003"><a xlink:title=" ">
<path fill="none" stroke="#63b8ff" d="M240.37,-20.42C248.73,-19.47 257.35,-18.49 265.83,-17.53"/>
<polygon fill="#63b8ff" stroke="#63b8ff" points="239.88,-16.95 230.34,-21.56 240.67,-23.91 239.88,-16.95"/>
</a>
</g>
</g>
</g>
</svg>
