<?xml version="1.0" encoding="UTF-8" standalone="no"?>
<!DOCTYPE svg PUBLIC "-//W3C//DTD SVG 1.1//EN"
 "http://www.w3.org/Graphics/SVG/1.1/DTD/svg11.dtd">
<!-- Generated by graphviz version 2.43.0 (0)
 -->
<!-- Title: pfc/numeric_codecs.hpp Pages: 1 -->
<svg width="476pt" height="192pt"
 viewBox="0.00 0.00 475.50 192.00" xmlns="http://www.w3.org/2000/svg" xmlns:xlink="http://www.w3.org/1999/xlink">
<g id="graph0" class="graph" transform="scale(1 1) rotate(0) translate(4 188)">
<title>pfc/numeric_codecs.hpp</title>
<!-- Node1 -->
<g id="Node000001" class="node">
<title>Node1</title>
<g id="a_Node000001"><a xlink:title=" ">
<polygon fill="#999999" stroke="#666666" points="392,-184 258,-184 258,-165 392,-165 392,-184"/>
<text text-anchor="middle" x="325" y="-172" font-family="Helvetica,sans-Serif" font-size="10.00">pfc/numeric_codecs.hpp</text>
</a>
</g>
</g>
<!-- Node2 -->
<g id="Node000002" class="node">
<title>Node2</title>
<g id="a_Node000002"><a xlink:href="core_8hpp.html" target="_top" xlink:title=" ">
<polygon fill="white" stroke="#666666" points="216.5,-74 157.5,-74 157.5,-55 216.5,-55 216.5,-74"/>
<text text-anchor="middle" x="187" y="-62" font-family="Helvetica,sans-Serif" font-size="10.00">core.hpp</text>
</a>
</g>
</g>
<!-- Node1&#45;&gt;Node2 -->
<g id="edge1_Node000001_Node000002" class="edge">
<title>Node1&#45;&gt;Node2</title>
<g id="a_edge1_Node000001_Node000002"><a xlink:title=" ">
<path fill="none" stroke="#63b8ff" d="M304.3,-164.96C286.69,-157.13 261.28,-144.42 242,-129 224.99,-115.4 209.12,-96.07 198.84,-82.31"/>
<polygon fill="#63b8ff" stroke="#63b8ff" points="201.65,-80.22 192.93,-74.19 195.99,-84.34 201.65,-80.22"/>
</a>
</g>
</g>
<!-- Node9 -->
<g id="Node000009" class="node">
<title>Node9</title>
<g id="a_Node000009"><a xlink:href="codecs_8hpp.html" target="_top" xlink:title=" ">
<polygon fill="white" stroke="#666666" points="322.5,-129 251.5,-129 251.5,-110 322.5,-110 322.5,-129"/>
<text text-anchor="middle" x="287" y="-117" font-family="Helvetica,sans-Serif" font-size="10.00">codecs.hpp</text>
</a>
</g>
</g>
<!-- Node1&#45;&gt;Node9 -->
<g id="edge8_Node000001_Node000009" class="edge">
<title>Node1&#45;&gt;Node9</title>
<g id="a_edge8_Node000001_Node000009"><a xlink:title=" ">
<path fill="none" stroke="#63b8ff" d="M318.73,-164.75C313.41,-157.34 305.64,-146.5 299.12,-137.41"/>
<polygon fill="#63b8ff" stroke="#63b8ff" points="301.83,-135.18 293.16,-129.09 296.14,-139.26 301.83,-135.18"/>
</a>
</g>
</g>
<!-- Node14 -->
<g id="Node000014" class="node">
<title>Node14</title>
<g id="a_Node000014"><a xlink:title=" ">
<polygon fill="#e0e0e0" stroke="#999999" points="387.5,-129 340.5,-129 340.5,-110 387.5,-110 387.5,-129"/>
<text text-anchor="middle" x="364" y="-117" font-family="Helvetica,sans-Serif" font-size="10.00">cmath</text>
</a>
</g>
</g>
<!-- Node1&#45;&gt;Node14 -->
<g id="edge14_Node000001_Node000014" class="edge">
<title>Node1&#45;&gt;Node14</title>
<g id="a_edge14_Node000001_Node000014"><a xlink:title=" ">
<path fill="none" stroke="#63b8ff" d="M331.44,-164.75C336.89,-157.34 344.86,-146.5 351.56,-137.41"/>
<polygon fill="#63b8ff" stroke="#63b8ff" points="354.57,-139.22 357.68,-129.09 348.93,-135.07 354.57,-139.22"/>
</a>
</g>
</g>
<!-- Node15 -->
<g id="Node000015" class="node">
<title>Node15</title>
<g id="a_Node000015"><a xlink:title=" ">
<polygon fill="#e0e0e0" stroke="#999999" points="462,-129 406,-129 406,-110 462,-110 462,-129"/>
<text text-anchor="middle" x="434" y="-117" font-family="Helvetica,sans-Serif" font-size="10.00">numeric</text>
</a>
</g>
</g>
<!-- Node1&#45;&gt;Node15 -->
<g id="edge15_Node000001_Node000015" class="edge">
<title>Node1&#45;&gt;Node15</title>
<g id="a_edge15_Node000001_Node000015"><a xlink:title=" ">
<path fill="none" stroke="#63b8ff" d="M342.51,-164.98C359.97,-156.5 387.01,-143.35 407.17,-133.54"/>
<polygon fill="#63b8ff" stroke="#63b8ff" points="408.71,-136.69 416.17,-129.17 405.64,-130.4 408.71,-136.69"/>
</a>
</g>
</g>
<!-- Node3 -->
<g id="Node000003" class="node">
<title>Node3</title>
<g id="a_Node000003"><a xlink:title=" ">
<polygon fill="#e0e0e0" stroke="#999999" points="50,-19 0,-19 0,0 50,0 50,-19"/>
<text text-anchor="middle" x="25" y="-7" font-family="Helvetica,sans-Serif" font-size="10.00">cstdint</text>
</a>
</g>
</g>
<!-- Node2&#45;&gt;Node3 -->
<g id="edge2_Node000002_Node000003" class="edge">
<title>Node2&#45;&gt;Node3</title>
<g id="a_edge2_Node000002_Node000003"><a xlink:title=" ">
<path fill="none" stroke="#63b8ff" d="M160.97,-54.98C133.57,-46.02 90.28,-31.86 59.92,-21.92"/>
<polygon fill="#63b8ff" stroke="#63b8ff" points="60.76,-18.52 50.16,-18.73 58.58,-25.17 60.76,-18.52"/>
</a>
</g>
</g>
<!-- Node4 -->
<g id="Node000004" class="node">
<title>Node4</title>
<g id="a_Node000004"><a xlink:title=" ">
<polygon fill="#e0e0e0" stroke="#999999" points="128,-19 68,-19 68,0 128,0 128,-19"/>
<text text-anchor="middle" x="98" y="-7" font-family="Helvetica,sans-Serif" font-size="10.00">concepts</text>
</a>
</g>
</g>
<!-- Node2&#45;&gt;Node4 -->
<g id="edge3_Node000002_Node000004" class="edge">
<title>Node2&#45;&gt;Node4</title>
<g id="a_edge3_Node000002_Node000004"><a xlink:title=" ">
<path fill="none" stroke="#63b8ff" d="M172.7,-54.98C158.9,-46.77 137.76,-34.18 121.49,-24.49"/>
<polygon fill="#63b8ff" stroke="#63b8ff" points="122.94,-21.28 112.56,-19.17 119.36,-27.29 122.94,-21.28"/>
</a>
</g>
</g>
<!-- Node5 -->
<g id="Node000005" class="node">
<title>Node5</title>
<g id="a_Node000005"><a xlink:title=" ">
<polygon fill="#e0e0e0" stroke="#999999" points="175.5,-19 146.5,-19 146.5,0 175.5,0 175.5,-19"/>
<text text-anchor="middle" x="161" y="-7" font-family="Helvetica,sans-Serif" font-size="10.00">bit</text>
</a>
</g>
</g>
<!-- Node2&#45;&gt;Node5 -->
<g id="edge4_Node000002_Node000005" class="edge">
<title>Node2&#45;&gt;Node5</title>
<g id="a_edge4_Node000002_Node000005"><a xlink:title=" ">
<path fill="none" stroke="#63b8ff" d="M182.71,-54.75C179.19,-47.57 174.09,-37.18 169.72,-28.27"/>
<polygon fill="#63b8ff" stroke="#63b8ff" points="172.76,-26.53 165.21,-19.09 166.48,-29.61 172.76,-26.53"/>
</a>
</g>
</g>
<!-- Node6 -->
<g id="Node000006" class="node">
<title>Node6</title>
<g id="a_Node000006"><a xlink:title=" ">
<polygon fill="#e0e0e0" stroke="#999999" points="234,-19 194,-19 194,0 234,0 234,-19"/>
<text text-anchor="middle" x="214" y="-7" font-family="Helvetica,sans-Serif" font-size="10.00">span</text>
</a>
</g>
</g>
<!-- Node2&#45;&gt;Node6 -->
<g id="edge5_Node000002_Node000006" class="edge">
<title>Node2&#45;&gt;Node6</title>
<g id="a_edge5_Node000002_Node000006"><a xlink:title=" ">
<path fill="none" stroke="#63b8ff" d="M191.46,-54.75C195.12,-47.57 200.41,-37.18 204.95,-28.27"/>
<polygon fill="#63b8ff" stroke="#63b8ff" points="208.2,-29.59 209.62,-19.09 201.97,-26.41 208.2,-29.59"/>
</a>
</g>
</g>
<!-- Node7 -->
<g id="Node000007" class="node">
<title>Node7</title>
<g id="a_Node000007"><a xlink:title=" ">
<polygon fill="#e0e0e0" stroke="#999999" points="302,-19 252,-19 252,0 302,0 302,-19"/>
<text text-anchor="middle" x="277" y="-7" font-family="Helvetica,sans-Serif" font-size="10.00">ranges</text>
</a>
</g>
</g>
<!-- Node2&#45;&gt;Node7 -->
<g id="edge6_Node000002_Node000007" class="edge">
<title>Node2&#45;&gt;Node7</title>
<g id="a_edge6_Node000002_Node000007"><a xlink:title=" ">
<path fill="none" stroke="#63b8ff" d="M201.46,-54.98C215.42,-46.77 236.79,-34.18 253.25,-24.49"/>
<polygon fill="#63b8ff" stroke="#63b8ff" points="255.44,-27.26 262.28,-19.17 251.88,-21.23 255.44,-27.26"/>
</a>
</g>
</g>
<!-- Node8 -->
<g id="Node000008" class="node">
<title>Node8</title>
<g id="a_Node000008"><a xlink:title=" ">
<polygon fill="#e0e0e0" stroke="#999999" points="376,-19 320,-19 320,0 376,0 376,-19"/>
<text text-anchor="middle" x="348" y="-7" font-family="Helvetica,sans-Serif" font-size="10.00">optional</text>
</a>
</g>
</g>
<!-- Node2&#45;&gt;Node8 -->
<g id="edge7_Node000002_Node000008" class="edge">
<title>Node2&#45;&gt;Node8</title>
<g id="a_edge7_Node000002_Node000008"><a xlink:title=" ">
<path fill="none" stroke="#63b8ff" d="M212.87,-54.98C239.78,-46.13 282.12,-32.19 312.23,-22.28"/>
<polygon fill="#63b8ff" stroke="#63b8ff" points="313.53,-25.53 321.93,-19.08 311.34,-18.88 313.53,-25.53"/>
</a>
</g>
</g>
<!-- Node9&#45;&gt;Node2 -->
<g id="edge9_Node000009_Node000002" class="edge">
<title>Node9&#45;&gt;Node2</title>
<g id="a_edge9_Node000009_Node000002"><a xlink:title=" ">
<path fill="none" stroke="#63b8ff" d="M270.93,-109.98C255.14,-101.61 230.78,-88.7 212.37,-78.95"/>
<polygon fill="#63b8ff" stroke="#63b8ff" points="213.83,-75.76 203.36,-74.17 210.56,-81.95 213.83,-75.76"/>
</a>
</g>
</g>
<!-- Node10 -->
<g id="Node000010" class="node">
<title>Node10</title>
<g id="a_Node000010"><a xlink:title=" ">
<polygon fill="#e0e0e0" stroke="#999999" points="279,-74 235,-74 235,-55 279,-55 279,-74"/>
<text text-anchor="middle" x="257" y="-62" font-family="Helvetica,sans-Serif" font-size="10.00">limits</text>
</a>
</g>
</g>
<!-- Node9&#45;&gt;Node10 -->
<g id="edge10_Node000009_Node000010" class="edge">
<title>Node9&#45;&gt;Node10</title>
<g id="a_edge10_Node000009_Node000010"><a xlink:title=" ">
<path fill="none" stroke="#63b8ff" d="M282.05,-109.75C277.94,-102.49 271.97,-91.95 266.9,-82.98"/>
<polygon fill="#63b8ff" stroke="#63b8ff" points="269.83,-81.07 261.86,-74.09 263.74,-84.52 269.83,-81.07"/>
</a>
</g>
</g>
<!-- Node11 -->
<g id="Node000011" class="node">
<title>Node11</title>
<g id="a_Node000011"><a xlink:title=" ">
<polygon fill="#e0e0e0" stroke="#999999" points="339,-74 297,-74 297,-55 339,-55 339,-74"/>
<text text-anchor="middle" x="318" y="-62" font-family="Helvetica,sans-Serif" font-size="10.00">array</text>
</a>
</g>
</g>
<!-- Node9&#45;&gt;Node11 -->
<g id="edge11_Node000009_Node000011" class="edge">
<title>Node9&#45;&gt;Node11</title>
<g id="a_edge11_Node000009_Node000011"><a xlink:title=" ">
<path fill="none" stroke="#63b8ff" d="M292.12,-109.75C296.36,-102.49 302.53,-91.95 307.78,-82.98"/>
<polygon fill="#63b8ff" stroke="#63b8ff" points="310.95,-84.49 312.98,-74.09 304.91,-80.95 310.95,-84.49"/>
</a>
</g>
</g>
<!-- Node12 -->
<g id="Node000012" class="node">
<title>Node12</title>
<g id="a_Node000012"><a xlink:title=" ">
<polygon fill="#e0e0e0" stroke="#999999" points="404.5,-74 357.5,-74 357.5,-55 404.5,-55 404.5,-74"/>
<text text-anchor="middle" x="381" y="-62" font-family="Helvetica,sans-Serif" font-size="10.00">vector</text>
</a>
</g>
</g>
<!-- Node9&#45;&gt;Node12 -->
<g id="edge12_Node000009_Node000012" class="edge">
<title>Node9&#45;&gt;Node12</title>
<g id="a_edge12_Node000009_Node000012"><a xlink:title=" ">
<path fill="none" stroke="#63b8ff" d="M302.1,-109.98C316.82,-101.69 339.42,-88.94 356.67,-79.22"/>
<polygon fill="#63b8ff" stroke="#63b8ff" points="358.63,-82.13 365.62,-74.17 355.19,-76.03 358.63,-82.13"/>
</a>
</g>
</g>
<!-- Node13 -->
<g id="Node000013" class="node">
<title>Node13</title>
<g id="a_Node000013"><a xlink:title=" ">
<polygon fill="#e0e0e0" stroke="#999999" points="467.5,-74 422.5,-74 422.5,-55 467.5,-55 467.5,-74"/>
<text text-anchor="middle" x="445" y="-62" font-family="Helvetica,sans-Serif" font-size="10.00">utility</text>
</a>
</g>
</g>
<!-- Node9&#45;&gt;Node13 -->
<g id="edge13_Node000009_Node000013" class="edge">
<title>Node9&#45;&gt;Node13</title>
<g id="a_edge13_Node000009_Node000013"><a xlink:title=" ">
<path fill="none" stroke="#63b8ff" d="M312.39,-109.98C339.74,-100.81 383.32,-86.19 413,-76.23"/>
<polygon fill="#63b8ff" stroke="#63b8ff" points="414.12,-79.55 422.49,-73.05 411.9,-72.91 414.12,-79.55"/>
</a>
</g>
</g>
</g>
</svg>
