<?xml version="1.0" encoding="UTF-8" standalone="no"?>
<!DOCTYPE svg PUBLIC "-//W3C//DTD SVG 1.1//EN"
 "http://www.w3.org/Graphics/SVG/1.1/DTD/svg11.dtd">
<!-- Generated by graphviz version 2.43.0 (0)
 -->
<!-- Title: pfc/packed.hpp Pages: 1 -->
<svg width="663pt" height="137pt"
 viewBox="0.00 0.00 663.00 137.00" xmlns="http://www.w3.org/2000/svg" xmlns:xlink="http://www.w3.org/1999/xlink">
<g id="graph0" class="graph" transform="scale(1 1) rotate(0) translate(4 133)">
<title>pfc/packed.hpp</title>
<!-- Node1 -->
<g id="Node000001" class="node">
<title>Node1</title>
<g id="a_Node000001"><a xlink:title=" ">
<polygon fill="#999999" stroke="#666666" points="320.5,-129 230.5,-129 230.5,-110 320.5,-110 320.5,-129"/>
<text text-anchor="middle" x="275.5" y="-117" font-family="Helvetica,sans-Serif" font-size="10.00">pfc/packed.hpp</text>
</a>
</g>
</g>
<!-- Node2 -->
<g id="Node000002" class="node">
<title>Node2</title>
<g id="a_Node000002"><a xlink:href="algebraic_8hpp.html" target="_top" xlink:title=" ">
<polygon fill="white" stroke="#666666" points="101,-74 0,-74 0,-55 101,-55 101,-74"/>
<text text-anchor="middle" x="50.5" y="-62" font-family="Helvetica,sans-Serif" font-size="10.00">pfc/algebraic.hpp</text>
</a>
</g>
</g>
<!-- Node1&#45;&gt;Node2 -->
<g id="edge1_Node000001_Node000002" class="edge">
<title>Node1&#45;&gt;Node2</title>
<g id="a_edge1_Node000001_Node000002"><a xlink:title=" ">
<path fill="none" stroke="#63b8ff" d="M229.61,-107.69C187.45,-97.76 125.8,-83.24 86.93,-74.08"/>
<polygon fill="#63b8ff" stroke="#63b8ff" points="228.81,-111.1 239.35,-109.98 230.42,-104.28 228.81,-111.1"/>
</a>
</g>
</g>
<!-- Node3 -->
<g id="Node000003" class="node">
<title>Node3</title>
<g id="a_Node000003"><a xlink:href="pfc_8hpp.html" target="_top" xlink:title=" ">
<polygon fill="white" stroke="#666666" points="247,-19 176,-19 176,0 247,0 247,-19"/>
<text text-anchor="middle" x="211.5" y="-7" font-family="Helvetica,sans-Serif" font-size="10.00">pfc/pfc.hpp</text>
</a>
</g>
</g>
<!-- Node1&#45;&gt;Node3 -->
<g id="edge7_Node000001_Node000003" class="edge">
<title>Node1&#45;&gt;Node3</title>
<g id="a_edge7_Node000001_Node000003"><a xlink:title=" ">
<path fill="none" stroke="#63b8ff" d="M220.46,-113.67C194.14,-108.27 164.86,-97.07 148.5,-74 132.87,-51.96 167.59,-30.54 191.44,-19.09"/>
<polygon fill="#63b8ff" stroke="#63b8ff" points="219.91,-117.13 230.38,-115.47 221.16,-110.24 219.91,-117.13"/>
</a>
</g>
</g>
<!-- Node4 -->
<g id="Node000004" class="node">
<title>Node4</title>
<g id="a_Node000004"><a xlink:href="algorithms_8hpp.html" target="_top" xlink:title=" ">
<polygon fill="white" stroke="#666666" points="265.5,-74 157.5,-74 157.5,-55 265.5,-55 265.5,-74"/>
<text text-anchor="middle" x="211.5" y="-62" font-family="Helvetica,sans-Serif" font-size="10.00">pfc/algorithms.hpp</text>
</a>
</g>
</g>
<!-- Node1&#45;&gt;Node4 -->
<g id="edge3_Node000001_Node000004" class="edge">
<title>Node1&#45;&gt;Node4</title>
<g id="a_edge3_Node000001_Node000004"><a xlink:title=" ">
<path fill="none" stroke="#63b8ff" d="M257.51,-103.6C246.04,-94.11 231.59,-82.13 221.97,-74.17"/>
<polygon fill="#63b8ff" stroke="#63b8ff" points="255.28,-106.3 265.22,-109.98 259.75,-100.91 255.28,-106.3"/>
</a>
</g>
</g>
<!-- Node5 -->
<g id="Node000005" class="node">
<title>Node5</title>
<g id="a_Node000005"><a xlink:href="coordinates_8hpp.html" target="_top" xlink:title=" ">
<polygon fill="white" stroke="#666666" points="397,-74 284,-74 284,-55 397,-55 397,-74"/>
<text text-anchor="middle" x="340.5" y="-62" font-family="Helvetica,sans-Serif" font-size="10.00">pfc/coordinates.hpp</text>
</a>
</g>
</g>
<!-- Node1&#45;&gt;Node5 -->
<g id="edge5_Node000001_Node000005" class="edge">
<title>Node1&#45;&gt;Node5</title>
<g id="a_edge5_Node000001_Node000005"><a xlink:title=" ">
<path fill="none" stroke="#63b8ff" d="M293.77,-103.6C305.42,-94.11 320.1,-82.13 329.87,-74.17"/>
<polygon fill="#63b8ff" stroke="#63b8ff" points="291.48,-100.95 285.94,-109.98 295.91,-106.38 291.48,-100.95"/>
</a>
</g>
</g>
<!-- Node6 -->
<g id="Node000006" class="node">
<title>Node6</title>
<g id="a_Node000006"><a xlink:href="stl__integration_8hpp.html" target="_top" xlink:title=" ">
<polygon fill="white" stroke="#666666" points="541.5,-74 415.5,-74 415.5,-55 541.5,-55 541.5,-74"/>
<text text-anchor="middle" x="478.5" y="-62" font-family="Helvetica,sans-Serif" font-size="10.00">pfc/stl_integration.hpp</text>
</a>
</g>
</g>
<!-- Node1&#45;&gt;Node6 -->
<g id="edge8_Node000001_Node000006" class="edge">
<title>Node1&#45;&gt;Node6</title>
<g id="a_edge8_Node000001_Node000006"><a xlink:title=" ">
<path fill="none" stroke="#63b8ff" d="M317.87,-107.44C355.87,-97.52 410.86,-83.16 445.63,-74.08"/>
<polygon fill="#63b8ff" stroke="#63b8ff" points="316.91,-104.07 308.12,-109.98 318.68,-110.84 316.91,-104.07"/>
</a>
</g>
</g>
<!-- Node7 -->
<g id="Node000007" class="node">
<title>Node7</title>
<g id="a_Node000007"><a xlink:href="succinct_8hpp.html" target="_top" xlink:title=" ">
<polygon fill="white" stroke="#666666" points="655,-74 560,-74 560,-55 655,-55 655,-74"/>
<text text-anchor="middle" x="607.5" y="-62" font-family="Helvetica,sans-Serif" font-size="10.00">pfc/succinct.hpp</text>
</a>
</g>
</g>
<!-- Node1&#45;&gt;Node7 -->
<g id="edge10_Node000001_Node000007" class="edge">
<title>Node1&#45;&gt;Node7</title>
<g id="a_edge10_Node000001_Node000007"><a xlink:title=" ">
<path fill="none" stroke="#63b8ff" d="M330.53,-109.72C394.52,-99.5 499.11,-82.8 559.79,-73.12"/>
<polygon fill="#63b8ff" stroke="#63b8ff" points="329.94,-106.26 320.62,-111.3 331.05,-113.18 329.94,-106.26"/>
</a>
</g>
</g>
<!-- Node2&#45;&gt;Node3 -->
<g id="edge2_Node000002_Node000003" class="edge">
<title>Node2&#45;&gt;Node3</title>
<g id="a_edge2_Node000002_Node000003"><a xlink:title=" ">
<path fill="none" stroke="#63b8ff" d="M86.05,-51.8C116.09,-41.91 158.44,-27.97 185.43,-19.08"/>
<polygon fill="#63b8ff" stroke="#63b8ff" points="84.77,-48.53 76.37,-54.98 86.96,-55.18 84.77,-48.53"/>
</a>
</g>
</g>
<!-- Node4&#45;&gt;Node3 -->
<g id="edge4_Node000004_Node000003" class="edge">
<title>Node4&#45;&gt;Node3</title>
<g id="a_edge4_Node000004_Node000003"><a xlink:title=" ">
<path fill="none" stroke="#63b8ff" d="M211.5,-44.66C211.5,-35.93 211.5,-25.99 211.5,-19.09"/>
<polygon fill="#63b8ff" stroke="#63b8ff" points="208,-44.75 211.5,-54.75 215,-44.75 208,-44.75"/>
</a>
</g>
</g>
<!-- Node5&#45;&gt;Node3 -->
<g id="edge6_Node000005_Node000003" class="edge">
<title>Node5&#45;&gt;Node3</title>
<g id="a_edge6_Node000005_Node000003"><a xlink:title=" ">
<path fill="none" stroke="#63b8ff" d="M310.46,-51.16C286.58,-41.35 253.78,-27.87 232.6,-19.17"/>
<polygon fill="#63b8ff" stroke="#63b8ff" points="309.19,-54.42 319.77,-54.98 311.85,-47.95 309.19,-54.42"/>
</a>
</g>
</g>
<!-- Node6&#45;&gt;Node3 -->
<g id="edge9_Node000006_Node000003" class="edge">
<title>Node6&#45;&gt;Node3</title>
<g id="a_edge9_Node000006_Node000003"><a xlink:title=" ">
<path fill="none" stroke="#63b8ff" d="M425.73,-53.02C372.82,-42.52 292.82,-26.64 247.03,-17.55"/>
<polygon fill="#63b8ff" stroke="#63b8ff" points="425.11,-56.47 435.6,-54.98 426.47,-49.6 425.11,-56.47"/>
</a>
</g>
</g>
</g>
</svg>
