<?xml version="1.0" encoding="UTF-8" standalone="no"?>
<!DOCTYPE svg PUBLIC "-//W3C//DTD SVG 1.1//EN"
 "http://www.w3.org/Graphics/SVG/1.1/DTD/svg11.dtd">
<!-- Generated by graphviz version 2.43.0 (0)
 -->
<!-- Title: pfc/stl_integration.hpp Pages: 1 -->
<svg width="684pt" height="247pt"
 viewBox="0.00 0.00 683.80 247.00" xmlns="http://www.w3.org/2000/svg" xmlns:xlink="http://www.w3.org/1999/xlink">
<g id="graph0" class="graph" transform="scale(1 1) rotate(0) translate(4 243)">
<title>pfc/stl_integration.hpp</title>
<!-- Node1 -->
<g id="Node000001" class="node">
<title>Node1</title>
<g id="a_Node000001"><a xlink:title=" ">
<polygon fill="#999999" stroke="#666666" points="493.3,-239 367.3,-239 367.3,-220 493.3,-220 493.3,-239"/>
<text text-anchor="middle" x="430.3" y="-227" font-family="Helvetica,sans-Serif" font-size="10.00">pfc/stl_integration.hpp</text>
</a>
</g>
</g>
<!-- Node2 -->
<g id="Node000002" class="node">
<title>Node2</title>
<g id="a_Node000002"><a xlink:href="core_8hpp.html" target="_top" xlink:title=" ">
<polygon fill="white" stroke="#666666" points="323.8,-74 264.8,-74 264.8,-55 323.8,-55 323.8,-74"/>
<text text-anchor="middle" x="294.3" y="-62" font-family="Helvetica,sans-Serif" font-size="10.00">core.hpp</text>
</a>
</g>
</g>
<!-- Node1&#45;&gt;Node2 -->
<g id="edge1_Node000001_Node000002" class="edge">
<title>Node1&#45;&gt;Node2</title>
<g id="a_edge1_Node000001_Node000002"><a xlink:title=" ">
<path fill="none" stroke="#63b8ff" d="M422.28,-219.71C414.57,-211.02 402.87,-197.16 394.3,-184 374.12,-153.02 380.44,-138.01 356.3,-110 345.82,-97.84 331.38,-87.23 319.07,-79.42"/>
<polygon fill="#63b8ff" stroke="#63b8ff" points="320.54,-76.21 310.17,-74.01 316.9,-82.2 320.54,-76.21"/>
</a>
</g>
</g>
<!-- Node9 -->
<g id="Node000009" class="node">
<title>Node9</title>
<g id="a_Node000009"><a xlink:href="packed_8hpp.html" target="_top" xlink:title=" ">
<polygon fill="white" stroke="#666666" points="259.3,-184 187.3,-184 187.3,-165 259.3,-165 259.3,-184"/>
<text text-anchor="middle" x="223.3" y="-172" font-family="Helvetica,sans-Serif" font-size="10.00">packed.hpp</text>
</a>
</g>
</g>
<!-- Node1&#45;&gt;Node9 -->
<g id="edge8_Node000001_Node000009" class="edge">
<title>Node1&#45;&gt;Node9</title>
<g id="a_edge8_Node000001_Node000009"><a xlink:title=" ">
<path fill="none" stroke="#63b8ff" d="M397.04,-219.98C361.69,-210.93 305.63,-196.58 266.79,-186.64"/>
<polygon fill="#63b8ff" stroke="#63b8ff" points="267.37,-183.17 256.82,-184.08 265.64,-189.95 267.37,-183.17"/>
</a>
</g>
</g>
<!-- Node15 -->
<g id="Node000015" class="node">
<title>Node15</title>
<g id="a_Node000015"><a xlink:title=" ">
<polygon fill="#e0e0e0" stroke="#999999" points="347.3,-129 289.3,-129 289.3,-110 347.3,-110 347.3,-129"/>
<text text-anchor="middle" x="318.3" y="-117" font-family="Helvetica,sans-Serif" font-size="10.00">memory</text>
</a>
</g>
</g>
<!-- Node1&#45;&gt;Node15 -->
<g id="edge22_Node000001_Node000015" class="edge">
<title>Node1&#45;&gt;Node15</title>
<g id="a_edge22_Node000001_Node000015"><a xlink:title=" ">
<path fill="none" stroke="#63b8ff" d="M413.06,-219.93C398.21,-212 376.79,-199.15 361.3,-184 347.36,-170.37 335.3,-151.55 327.52,-137.94"/>
<polygon fill="#63b8ff" stroke="#63b8ff" points="330.55,-136.18 322.66,-129.1 324.41,-139.55 330.55,-136.18"/>
</a>
</g>
</g>
<!-- Node17 -->
<g id="Node000017" class="node">
<title>Node17</title>
<g id="a_Node000017"><a xlink:title=" ">
<polygon fill="#e0e0e0" stroke="#999999" points="456.8,-184 403.8,-184 403.8,-165 456.8,-165 456.8,-184"/>
<text text-anchor="middle" x="430.3" y="-172" font-family="Helvetica,sans-Serif" font-size="10.00">iterator</text>
</a>
</g>
</g>
<!-- Node1&#45;&gt;Node17 -->
<g id="edge20_Node000001_Node000017" class="edge">
<title>Node1&#45;&gt;Node17</title>
<g id="a_edge20_Node000001_Node000017"><a xlink:title=" ">
<path fill="none" stroke="#63b8ff" d="M430.3,-219.75C430.3,-212.8 430.3,-202.85 430.3,-194.13"/>
<polygon fill="#63b8ff" stroke="#63b8ff" points="433.8,-194.09 430.3,-184.09 426.8,-194.09 433.8,-194.09"/>
</a>
</g>
</g>
<!-- Node18 -->
<g id="Node000018" class="node">
<title>Node18</title>
<g id="a_Node000018"><a xlink:title=" ">
<polygon fill="#e0e0e0" stroke="#999999" points="539.3,-184 475.3,-184 475.3,-165 539.3,-165 539.3,-184"/>
<text text-anchor="middle" x="507.3" y="-172" font-family="Helvetica,sans-Serif" font-size="10.00">algorithm</text>
</a>
</g>
</g>
<!-- Node1&#45;&gt;Node18 -->
<g id="edge21_Node000001_Node000018" class="edge">
<title>Node1&#45;&gt;Node18</title>
<g id="a_edge21_Node000001_Node000018"><a xlink:title=" ">
<path fill="none" stroke="#63b8ff" d="M442.67,-219.98C454.39,-211.92 472.22,-199.65 486.19,-190.03"/>
<polygon fill="#63b8ff" stroke="#63b8ff" points="488.45,-192.72 494.7,-184.17 484.48,-186.96 488.45,-192.72"/>
</a>
</g>
</g>
<!-- Node19 -->
<g id="Node000019" class="node">
<title>Node19</title>
<g id="a_Node000019"><a xlink:title=" ">
<polygon fill="#e0e0e0" stroke="#999999" points="622.8,-184 557.8,-184 557.8,-165 622.8,-165 622.8,-184"/>
<text text-anchor="middle" x="590.3" y="-172" font-family="Helvetica,sans-Serif" font-size="10.00">typeindex</text>
</a>
</g>
</g>
<!-- Node1&#45;&gt;Node19 -->
<g id="edge23_Node000001_Node000019" class="edge">
<title>Node1&#45;&gt;Node19</title>
<g id="a_edge23_Node000001_Node000019"><a xlink:title=" ">
<path fill="none" stroke="#63b8ff" d="M456.01,-219.98C482.75,-211.13 524.83,-197.19 554.75,-187.28"/>
<polygon fill="#63b8ff" stroke="#63b8ff" points="556,-190.55 564.39,-184.08 553.8,-183.9 556,-190.55"/>
</a>
</g>
</g>
<!-- Node20 -->
<g id="Node000020" class="node">
<title>Node20</title>
<g id="a_Node000020"><a xlink:title=" ">
<polygon fill="#e0e0e0" stroke="#999999" points="675.8,-184 640.8,-184 640.8,-165 675.8,-165 675.8,-184"/>
<text text-anchor="middle" x="658.3" y="-172" font-family="Helvetica,sans-Serif" font-size="10.00">any</text>
</a>
</g>
</g>
<!-- Node1&#45;&gt;Node20 -->
<g id="edge24_Node000001_Node000020" class="edge">
<title>Node1&#45;&gt;Node20</title>
<g id="a_edge24_Node000001_Node000020"><a xlink:title=" ">
<path fill="none" stroke="#63b8ff" d="M475.14,-219.95C514.11,-212.22 572.24,-199.98 630.94,-184.17"/>
<polygon fill="#63b8ff" stroke="#63b8ff" points="632.02,-187.51 640.75,-181.5 630.18,-180.75 632.02,-187.51"/>
</a>
</g>
</g>
<!-- Node3 -->
<g id="Node000003" class="node">
<title>Node3</title>
<g id="a_Node000003"><a xlink:title=" ">
<polygon fill="#e0e0e0" stroke="#999999" points="387.3,-19 337.3,-19 337.3,0 387.3,0 387.3,-19"/>
<text text-anchor="middle" x="362.3" y="-7" font-family="Helvetica,sans-Serif" font-size="10.00">cstdint</text>
</a>
</g>
</g>
<!-- Node2&#45;&gt;Node3 -->
<g id="edge2_Node000002_Node000003" class="edge">
<title>Node2&#45;&gt;Node3</title>
<g id="a_edge2_Node000002_Node000003"><a xlink:title=" ">
<path fill="none" stroke="#63b8ff" d="M305.23,-54.98C315.38,-47.07 330.72,-35.11 342.95,-25.58"/>
<polygon fill="#63b8ff" stroke="#63b8ff" points="345.44,-28.08 351.18,-19.17 341.14,-22.56 345.44,-28.08"/>
</a>
</g>
</g>
<!-- Node4 -->
<g id="Node000004" class="node">
<title>Node4</title>
<g id="a_Node000004"><a xlink:title=" ">
<polygon fill="#e0e0e0" stroke="#999999" points="465.3,-19 405.3,-19 405.3,0 465.3,0 465.3,-19"/>
<text text-anchor="middle" x="435.3" y="-7" font-family="Helvetica,sans-Serif" font-size="10.00">concepts</text>
</a>
</g>
</g>
<!-- Node2&#45;&gt;Node4 -->
<g id="edge3_Node000002_Node000004" class="edge">
<title>Node2&#45;&gt;Node4</title>
<g id="a_edge3_Node000002_Node000004"><a xlink:title=" ">
<path fill="none" stroke="#63b8ff" d="M316.95,-54.98C340.15,-46.27 376.42,-32.63 402.7,-22.75"/>
<polygon fill="#63b8ff" stroke="#63b8ff" points="404.1,-25.97 412.23,-19.17 401.64,-19.41 404.1,-25.97"/>
</a>
</g>
</g>
<!-- Node5 -->
<g id="Node000005" class="node">
<title>Node5</title>
<g id="a_Node000005"><a xlink:title=" ">
<polygon fill="#e0e0e0" stroke="#999999" points="192.8,-19 163.8,-19 163.8,0 192.8,0 192.8,-19"/>
<text text-anchor="middle" x="178.3" y="-7" font-family="Helvetica,sans-Serif" font-size="10.00">bit</text>
</a>
</g>
</g>
<!-- Node2&#45;&gt;Node5 -->
<g id="edge4_Node000002_Node000005" class="edge">
<title>Node2&#45;&gt;Node5</title>
<g id="a_edge4_Node000002_Node000005"><a xlink:title=" ">
<path fill="none" stroke="#63b8ff" d="M275.66,-54.98C255.67,-45.85 223.86,-31.32 202.08,-21.36"/>
<polygon fill="#63b8ff" stroke="#63b8ff" points="203.4,-18.12 192.85,-17.15 200.49,-24.49 203.4,-18.12"/>
</a>
</g>
</g>
<!-- Node6 -->
<g id="Node000006" class="node">
<title>Node6</title>
<g id="a_Node000006"><a xlink:title=" ">
<polygon fill="#e0e0e0" stroke="#999999" points="251.3,-19 211.3,-19 211.3,0 251.3,0 251.3,-19"/>
<text text-anchor="middle" x="231.3" y="-7" font-family="Helvetica,sans-Serif" font-size="10.00">span</text>
</a>
</g>
</g>
<!-- Node2&#45;&gt;Node6 -->
<g id="edge5_Node000002_Node000006" class="edge">
<title>Node2&#45;&gt;Node6</title>
<g id="a_edge5_Node000002_Node000006"><a xlink:title=" ">
<path fill="none" stroke="#63b8ff" d="M284.18,-54.98C274.86,-47.15 260.83,-35.34 249.56,-25.86"/>
<polygon fill="#63b8ff" stroke="#63b8ff" points="251.51,-22.93 241.61,-19.17 247.01,-28.29 251.51,-22.93"/>
</a>
</g>
</g>
<!-- Node7 -->
<g id="Node000007" class="node">
<title>Node7</title>
<g id="a_Node000007"><a xlink:title=" ">
<polygon fill="#e0e0e0" stroke="#999999" points="319.3,-19 269.3,-19 269.3,0 319.3,0 319.3,-19"/>
<text text-anchor="middle" x="294.3" y="-7" font-family="Helvetica,sans-Serif" font-size="10.00">ranges</text>
</a>
</g>
</g>
<!-- Node2&#45;&gt;Node7 -->
<g id="edge6_Node000002_Node000007" class="edge">
<title>Node2&#45;&gt;Node7</title>
<g id="a_edge6_Node000002_Node000007"><a xlink:title=" ">
<path fill="none" stroke="#63b8ff" d="M294.3,-54.75C294.3,-47.8 294.3,-37.85 294.3,-29.13"/>
<polygon fill="#63b8ff" stroke="#63b8ff" points="297.8,-29.09 294.3,-19.09 290.8,-29.09 297.8,-29.09"/>
</a>
</g>
</g>
<!-- Node8 -->
<g id="Node000008" class="node">
<title>Node8</title>
<g id="a_Node000008"><a xlink:title=" ">
<polygon fill="#e0e0e0" stroke="#999999" points="79.3,-19 23.3,-19 23.3,0 79.3,0 79.3,-19"/>
<text text-anchor="middle" x="51.3" y="-7" font-family="Helvetica,sans-Serif" font-size="10.00">optional</text>
</a>
</g>
</g>
<!-- Node2&#45;&gt;Node8 -->
<g id="edge7_Node000002_Node000008" class="edge">
<title>Node2&#45;&gt;Node8</title>
<g id="a_edge7_Node000002_Node000008"><a xlink:title=" ">
<path fill="none" stroke="#63b8ff" d="M264.5,-57C220.37,-47.38 137.65,-29.33 89.24,-18.77"/>
<polygon fill="#63b8ff" stroke="#63b8ff" points="89.97,-15.35 79.46,-16.64 88.48,-22.19 89.97,-15.35"/>
</a>
</g>
</g>
<!-- Node9&#45;&gt;Node2 -->
<g id="edge9_Node000009_Node000002" class="edge">
<title>Node9&#45;&gt;Node2</title>
<g id="a_edge9_Node000009_Node000002"><a xlink:title=" ">
<path fill="none" stroke="#63b8ff" d="M229.11,-164.66C240.87,-146.77 267.67,-106 283,-82.69"/>
<polygon fill="#63b8ff" stroke="#63b8ff" points="286.04,-84.44 288.61,-74.16 280.19,-80.59 286.04,-84.44"/>
</a>
</g>
</g>
<!-- Node9&#45;&gt;Node8 -->
<g id="edge19_Node000009_Node000008" class="edge">
<title>Node9&#45;&gt;Node8</title>
<g id="a_edge19_Node000009_Node000008"><a xlink:title=" ">
<path fill="none" stroke="#63b8ff" d="M187.27,-169.86C151.62,-164.96 96.55,-153.79 55.3,-129 21.06,-108.43 -11.49,-91.69 4.3,-55 9.45,-43.03 19.59,-32.76 29.13,-25.12"/>
<polygon fill="#63b8ff" stroke="#63b8ff" points="31.29,-27.88 37.23,-19.11 27.11,-22.26 31.29,-27.88"/>
</a>
</g>
</g>
<!-- Node10 -->
<g id="Node000010" class="node">
<title>Node10</title>
<g id="a_Node000010"><a xlink:href="codecs_8hpp.html" target="_top" xlink:title=" ">
<polygon fill="white" stroke="#666666" points="194.8,-129 123.8,-129 123.8,-110 194.8,-110 194.8,-129"/>
<text text-anchor="middle" x="159.3" y="-117" font-family="Helvetica,sans-Serif" font-size="10.00">codecs.hpp</text>
</a>
</g>
</g>
<!-- Node9&#45;&gt;Node10 -->
<g id="edge10_Node000009_Node000010" class="edge">
<title>Node9&#45;&gt;Node10</title>
<g id="a_edge10_Node000009_Node000010"><a xlink:title=" ">
<path fill="none" stroke="#63b8ff" d="M213.02,-164.98C203.46,-157.07 189.02,-145.11 177.52,-135.58"/>
<polygon fill="#63b8ff" stroke="#63b8ff" points="179.7,-132.85 169.77,-129.17 175.24,-138.24 179.7,-132.85"/>
</a>
</g>
</g>
<!-- Node13 -->
<g id="Node000013" class="node">
<title>Node13</title>
<g id="a_Node000013"><a xlink:title=" ">
<polygon fill="#e0e0e0" stroke="#999999" points="246.8,-74 199.8,-74 199.8,-55 246.8,-55 246.8,-74"/>
<text text-anchor="middle" x="223.3" y="-62" font-family="Helvetica,sans-Serif" font-size="10.00">vector</text>
</a>
</g>
</g>
<!-- Node9&#45;&gt;Node13 -->
<g id="edge16_Node000009_Node000013" class="edge">
<title>Node9&#45;&gt;Node13</title>
<g id="a_edge16_Node000009_Node000013"><a xlink:title=" ">
<path fill="none" stroke="#63b8ff" d="M223.3,-164.66C223.3,-147.17 223.3,-107.8 223.3,-84.27"/>
<polygon fill="#63b8ff" stroke="#63b8ff" points="226.8,-84.16 223.3,-74.16 219.8,-84.16 226.8,-84.16"/>
</a>
</g>
</g>
<!-- Node9&#45;&gt;Node15 -->
<g id="edge17_Node000009_Node000015" class="edge">
<title>Node9&#45;&gt;Node15</title>
<g id="a_edge17_Node000009_Node000015"><a xlink:title=" ">
<path fill="none" stroke="#63b8ff" d="M238.56,-164.98C253.43,-156.69 276.28,-143.94 293.72,-134.22"/>
<polygon fill="#63b8ff" stroke="#63b8ff" points="295.73,-137.1 302.76,-129.17 292.32,-130.99 295.73,-137.1"/>
</a>
</g>
</g>
<!-- Node16 -->
<g id="Node000016" class="node">
<title>Node16</title>
<g id="a_Node000016"><a xlink:title=" ">
<polygon fill="#e0e0e0" stroke="#999999" points="105.8,-129 64.8,-129 64.8,-110 105.8,-110 105.8,-129"/>
<text text-anchor="middle" x="85.3" y="-117" font-family="Helvetica,sans-Serif" font-size="10.00">tuple</text>
</a>
</g>
</g>
<!-- Node9&#45;&gt;Node16 -->
<g id="edge18_Node000009_Node000016" class="edge">
<title>Node9&#45;&gt;Node16</title>
<g id="a_edge18_Node000009_Node000016"><a xlink:title=" ">
<path fill="none" stroke="#63b8ff" d="M201.13,-164.98C177.99,-156.1 141.55,-142.1 115.73,-132.19"/>
<polygon fill="#63b8ff" stroke="#63b8ff" points="116.65,-128.79 106.06,-128.47 114.14,-135.33 116.65,-128.79"/>
</a>
</g>
</g>
<!-- Node10&#45;&gt;Node2 -->
<g id="edge11_Node000010_Node000002" class="edge">
<title>Node10&#45;&gt;Node2</title>
<g id="a_edge11_Node000010_Node000002"><a xlink:title=" ">
<path fill="none" stroke="#63b8ff" d="M180.99,-109.98C203.1,-101.3 237.62,-87.75 262.75,-77.88"/>
<polygon fill="#63b8ff" stroke="#63b8ff" points="264.19,-81.08 272.22,-74.17 261.63,-74.57 264.19,-81.08"/>
</a>
</g>
</g>
<!-- Node11 -->
<g id="Node000011" class="node">
<title>Node11</title>
<g id="a_Node000011"><a xlink:title=" ">
<polygon fill="#e0e0e0" stroke="#999999" points="121.3,-74 77.3,-74 77.3,-55 121.3,-55 121.3,-74"/>
<text text-anchor="middle" x="99.3" y="-62" font-family="Helvetica,sans-Serif" font-size="10.00">limits</text>
</a>
</g>
</g>
<!-- Node10&#45;&gt;Node11 -->
<g id="edge12_Node000010_Node000011" class="edge">
<title>Node10&#45;&gt;Node11</title>
<g id="a_edge12_Node000010_Node000011"><a xlink:title=" ">
<path fill="none" stroke="#63b8ff" d="M149.66,-109.98C140.79,-102.15 127.43,-90.34 116.69,-80.86"/>
<polygon fill="#63b8ff" stroke="#63b8ff" points="118.93,-78.17 109.12,-74.17 114.29,-83.41 118.93,-78.17"/>
</a>
</g>
</g>
<!-- Node12 -->
<g id="Node000012" class="node">
<title>Node12</title>
<g id="a_Node000012"><a xlink:title=" ">
<polygon fill="#e0e0e0" stroke="#999999" points="181.3,-74 139.3,-74 139.3,-55 181.3,-55 181.3,-74"/>
<text text-anchor="middle" x="160.3" y="-62" font-family="Helvetica,sans-Serif" font-size="10.00">array</text>
</a>
</g>
</g>
<!-- Node10&#45;&gt;Node12 -->
<g id="edge13_Node000010_Node000012" class="edge">
<title>Node10&#45;&gt;Node12</title>
<g id="a_edge13_Node000010_Node000012"><a xlink:title=" ">
<path fill="none" stroke="#63b8ff" d="M159.47,-109.75C159.6,-102.8 159.78,-92.85 159.95,-84.13"/>
<polygon fill="#63b8ff" stroke="#63b8ff" points="163.45,-84.15 160.14,-74.09 156.45,-84.02 163.45,-84.15"/>
</a>
</g>
</g>
<!-- Node10&#45;&gt;Node13 -->
<g id="edge14_Node000010_Node000013" class="edge">
<title>Node10&#45;&gt;Node13</title>
<g id="a_edge14_Node000010_Node000013"><a xlink:title=" ">
<path fill="none" stroke="#63b8ff" d="M169.58,-109.98C179.14,-102.07 193.58,-90.11 205.08,-80.58"/>
<polygon fill="#63b8ff" stroke="#63b8ff" points="207.36,-83.24 212.83,-74.17 202.9,-77.85 207.36,-83.24"/>
</a>
</g>
</g>
<!-- Node14 -->
<g id="Node000014" class="node">
<title>Node14</title>
<g id="a_Node000014"><a xlink:title=" ">
<polygon fill="#e0e0e0" stroke="#999999" points="58.8,-74 13.8,-74 13.8,-55 58.8,-55 58.8,-74"/>
<text text-anchor="middle" x="36.3" y="-62" font-family="Helvetica,sans-Serif" font-size="10.00">utility</text>
</a>
</g>
</g>
<!-- Node10&#45;&gt;Node14 -->
<g id="edge15_Node000010_Node000014" class="edge">
<title>Node10&#45;&gt;Node14</title>
<g id="a_edge15_Node000010_Node000014"><a xlink:title=" ">
<path fill="none" stroke="#63b8ff" d="M139.54,-109.98C119.57,-101.38 88.5,-87.99 65.65,-78.15"/>
<polygon fill="#63b8ff" stroke="#63b8ff" points="66.99,-74.91 56.42,-74.17 64.22,-81.34 66.99,-74.91"/>
</a>
</g>
</g>
</g>
</svg>
