<?xml version="1.0" encoding="UTF-8" standalone="no"?>
<!DOCTYPE svg PUBLIC "-//W3C//DTD SVG 1.1//EN"
 "http://www.w3.org/Graphics/SVG/1.1/DTD/svg11.dtd">
<!-- Generated by graphviz version 2.43.0 (0)
 -->
<!-- Title: pfc::codecs::HuffmanNode&lt; Symbol &gt; Pages: 1 -->
<svg width="352pt" height="258pt"
 viewBox="0.00 0.00 351.50 258.00" xmlns="http://www.w3.org/2000/svg" xmlns:xlink="http://www.w3.org/1999/xlink">

<svg id="main" version="1.1" xmlns="http://www.w3.org/2000/svg" xmlns:xlink="http://www.w3.org/1999/xlink" xml:space="preserve" onload="init(evt)">
<style type="text/css"><![CDATA[
.node, .edge {opacity: 0.7;}
.node.selected, .edge.selected {opacity: 1;}
.edge:hover path { stroke: red; }
.edge:hover polygon { stroke: red; fill: red; }
]]></style>
<script type="application/ecmascript" xlink:href="svg.min.js"/>
<svg id="graph" class="graph">
<g id="graph0" class="graph" transform="scale(1 1) rotate(0) translate(4 254)">
<title>pfc::codecs::HuffmanNode&lt; Symbol &gt;</title>
<!-- Node1 -->
<g id="Node000001" class="node">
<title>Node1</title>
<g id="a_Node000001"><a xlink:title=" ">
<polygon fill="#999999" stroke="#666666" points="145,-30 0,-30 0,0 145,0 145,-30"/>
<text text-anchor="start" x="8" y="-18" font-family="Helvetica,sans-Serif" font-size="10.00">pfc::codecs::HuffmanNode</text>
<text text-anchor="middle" x="72.5" y="-7" font-family="Helvetica,sans-Serif" font-size="10.00">&lt; Symbol &gt;</text>
</a>
</g>
</g>
<!-- Node2 -->
<g id="Node000002" class="node">
<title>Node2</title>
<g id="a_Node000002"><a xlink:title=" ">
<polygon fill="white" stroke="#666666" points="260,-118 119,-118 119,-88 260,-88 260,-118"/>
<text text-anchor="start" x="127" y="-106" font-family="Helvetica,sans-Serif" font-size="10.00">std::unique_ptr&lt; pfc</text>
<text text-anchor="middle" x="189.5" y="-95" font-family="Helvetica,sans-Serif" font-size="10.00">::codecs::HuffmanNode &gt;</text>
</a>
</g>
</g>
<!-- Node2&#45;&gt;Node1 -->
<g id="edge1_Node000001_Node000002" class="edge">
<title>Node2&#45;&gt;Node1</title>
<g id="a_edge1_Node000001_Node000002"><a xlink:title=" ">
<path fill="none" stroke="#9a32cd" stroke-dasharray="5,2" d="M162.28,-81.99C140.58,-66.04 110.75,-44.12 91.55,-30"/>
<polygon fill="#9a32cd" stroke="#9a32cd" points="160.31,-84.89 170.44,-87.99 164.46,-79.25 160.31,-84.89"/>
</a>
</g>
<text text-anchor="middle" x="157" y="-62" font-family="Helvetica,sans-Serif" font-size="10.00" fill="grey"> left</text>
<text text-anchor="middle" x="157" y="-51" font-family="Helvetica,sans-Serif" font-size="10.00" fill="grey">right</text>
</g>
<!-- Node3 -->
<g id="Node000003" class="node">
<title>Node3</title>
<g id="a_Node000003"><a xlink:href="structpfc_1_1codecs_1_1HuffmanNode.html" target="_top" xlink:title=" ">
<polygon fill="white" stroke="#666666" points="308,-30 163,-30 163,0 308,0 308,-30"/>
<text text-anchor="start" x="171" y="-18" font-family="Helvetica,sans-Serif" font-size="10.00">pfc::codecs::HuffmanNode</text>
<text text-anchor="middle" x="235.5" y="-7" font-family="Helvetica,sans-Serif" font-size="10.00">&lt; Symbol &gt;</text>
</a>
</g>
</g>
<!-- Node2&#45;&gt;Node3 -->
<g id="edge3_Node000003_Node000002" class="edge">
<title>Node2&#45;&gt;Node3</title>
<g id="a_edge3_Node000003_Node000002"><a xlink:title=" ">
<path fill="none" stroke="#9a32cd" stroke-dasharray="5,2" d="M182.84,-77.85C181.45,-68.06 181.64,-56.97 186.5,-48 190.47,-40.67 196.92,-34.76 203.86,-30.1"/>
<polygon fill="#9a32cd" stroke="#9a32cd" points="179.43,-78.68 184.82,-87.8 186.3,-77.31 179.43,-78.68"/>
</a>
</g>
<text text-anchor="middle" x="198" y="-62" font-family="Helvetica,sans-Serif" font-size="10.00" fill="grey"> left</text>
<text text-anchor="middle" x="198" y="-51" font-family="Helvetica,sans-Serif" font-size="10.00" fill="grey">right</text>
</g>
<!-- Node3&#45;&gt;Node2 -->
<g id="edge2_Node000002_Node000003" class="edge">
<title>Node3&#45;&gt;Node2</title>
<g id="a_edge2_Node000002_Node000003"><a xlink:title=" ">
<path fill="none" stroke="#9a32cd" stroke-dasharray="5,2" d="M227.38,-39.64C223.68,-49.31 218.9,-60.45 213.5,-70 210.01,-76.16 205.49,-82.5 201.32,-87.88"/>
<polygon fill="#9a32cd" stroke="#9a32cd" points="230.68,-40.81 230.84,-30.22 224.11,-38.4 230.68,-40.81"/>
</a>
</g>
<text text-anchor="middle" x="232" y="-56.5" font-family="Helvetica,sans-Serif" font-size="10.00" fill="grey"> ptr</text>
</g>
<!-- Node4 -->
<g id="Node000004" class="node">
<title>Node4</title>
<g id="a_Node000004"><a xlink:title=" ">
<polygon fill="white" stroke="#666666" points="248.5,-184 130.5,-184 130.5,-165 248.5,-165 248.5,-184"/>
<text text-anchor="middle" x="189.5" y="-172" font-family="Helvetica,sans-Serif" font-size="10.00">std::unique_ptr&lt; T &gt;</text>
</a>
</g>
</g>
<!-- Node4&#45;&gt;Node2 -->
<g id="edge4_Node000002_Node000004" class="edge">
<title>Node4&#45;&gt;Node2</title>
<g id="a_edge4_Node000002_Node000004"><a xlink:title=" ">
<path fill="none" stroke="orange" stroke-dasharray="5,2" d="M189.5,-154.71C189.5,-143.19 189.5,-128.68 189.5,-118.14"/>
<polygon fill="orange" stroke="orange" points="186,-154.98 189.5,-164.98 193,-154.98 186,-154.98"/>
</a>
</g>
<text text-anchor="middle" x="266.5" y="-139" font-family="Helvetica,sans-Serif" font-size="10.00" fill="grey"> &lt; pfc::codecs::HuffmanNode &gt;</text>
</g>
<!-- Node5 -->
<g id="Node000005" class="node">
<title>Node5</title>
<g id="a_Node000005"><a xlink:title=" ">
<polygon fill="white" stroke="#666666" points="204,-250 175,-250 175,-231 204,-231 204,-250"/>
<text text-anchor="middle" x="189.5" y="-238" font-family="Helvetica,sans-Serif" font-size="10.00">T</text>
</a>
</g>
</g>
<!-- Node5&#45;&gt;Node4 -->
<g id="edge5_Node000004_Node000005" class="edge">
<title>Node5&#45;&gt;Node4</title>
<g id="a_edge5_Node000004_Node000005"><a xlink:title=" ">
<path fill="none" stroke="#9a32cd" stroke-dasharray="5,2" d="M189.5,-220.58C189.5,-208.63 189.5,-193.72 189.5,-184.41"/>
<polygon fill="#9a32cd" stroke="#9a32cd" points="186,-220.87 189.5,-230.87 193,-220.87 186,-220.87"/>
</a>
</g>
<text text-anchor="middle" x="198" y="-205" font-family="Helvetica,sans-Serif" font-size="10.00" fill="grey"> ptr</text>
</g>
</g>
</svg>
</svg>

<style type='text/css'>
<![CDATA[
[data-mouse-over-selected='false'] { opacity: 0.7; }
[data-mouse-over-selected='true']  { opacity: 1.0; }
]]>
</style>
<script type="application/ecmascript"><![CDATA[
document.addEventListener('DOMContentLoaded', (event) => {
  highlightEdges();
  highlightAdjacentNodes();
});
]]></script>
</svg>
