<?xml version="1.0" encoding="UTF-8" standalone="no"?>
<!DOCTYPE svg PUBLIC "-//W3C//DTD SVG 1.1//EN"
 "http://www.w3.org/Graphics/SVG/1.1/DTD/svg11.dtd">
<!-- Generated by graphviz version 2.43.0 (0)
 -->
<!-- Title: pfc/succinct.hpp Pages: 1 -->
<svg width="640pt" height="247pt"
 viewBox="0.00 0.00 639.50 247.00" xmlns="http://www.w3.org/2000/svg" xmlns:xlink="http://www.w3.org/1999/xlink">
<g id="graph0" class="graph" transform="scale(1 1) rotate(0) translate(4 243)">
<title>pfc/succinct.hpp</title>
<!-- Node1 -->
<g id="Node000001" class="node">
<title>Node1</title>
<g id="a_Node000001"><a xlink:title=" ">
<polygon fill="#999999" stroke="#666666" points="359.5,-239 264.5,-239 264.5,-220 359.5,-220 359.5,-239"/>
<text text-anchor="middle" x="312" y="-227" font-family="Helvetica,sans-Serif" font-size="10.00">pfc/succinct.hpp</text>
</a>
</g>
</g>
<!-- Node2 -->
<g id="Node000002" class="node">
<title>Node2</title>
<g id="a_Node000002"><a xlink:href="core_8hpp.html" target="_top" xlink:title=" ">
<polygon fill="white" stroke="#666666" points="153.5,-74 94.5,-74 94.5,-55 153.5,-55 153.5,-74"/>
<text text-anchor="middle" x="124" y="-62" font-family="Helvetica,sans-Serif" font-size="10.00">core.hpp</text>
</a>
</g>
</g>
<!-- Node1&#45;&gt;Node2 -->
<g id="edge1_Node000001_Node000002" class="edge">
<title>Node1&#45;&gt;Node2</title>
<g id="a_edge1_Node000001_Node000002"><a xlink:title=" ">
<path fill="none" stroke="#63b8ff" d="M302.15,-219.99C282.26,-202.81 235.89,-162.74 197,-129 178.12,-112.62 156.53,-93.83 141.75,-80.96"/>
<polygon fill="#63b8ff" stroke="#63b8ff" points="143.75,-78.06 133.91,-74.14 139.15,-83.34 143.75,-78.06"/>
</a>
</g>
</g>
<!-- Node6 -->
<g id="Node000006" class="node">
<title>Node6</title>
<g id="a_Node000006"><a xlink:title=" ">
<polygon fill="#e0e0e0" stroke="#999999" points="40,-19 0,-19 0,0 40,0 40,-19"/>
<text text-anchor="middle" x="20" y="-7" font-family="Helvetica,sans-Serif" font-size="10.00">span</text>
</a>
</g>
</g>
<!-- Node1&#45;&gt;Node6 -->
<g id="edge22_Node000001_Node000006" class="edge">
<title>Node1&#45;&gt;Node6</title>
<g id="a_edge22_Node000001_Node000006"><a xlink:title=" ">
<path fill="none" stroke="#63b8ff" d="M296.3,-219.91C280.73,-211.26 256.34,-197.32 236,-184 166.53,-138.52 148.42,-127.59 85,-74 67.04,-58.82 47.96,-39.79 35.15,-26.54"/>
<polygon fill="#63b8ff" stroke="#63b8ff" points="37.49,-23.93 28.05,-19.12 32.44,-28.77 37.49,-23.93"/>
</a>
</g>
</g>
<!-- Node9 -->
<g id="Node000009" class="node">
<title>Node9</title>
<g id="a_Node000009"><a xlink:href="codecs_8hpp.html" target="_top" xlink:title=" ">
<polygon fill="white" stroke="#666666" points="315.5,-129 244.5,-129 244.5,-110 315.5,-110 315.5,-129"/>
<text text-anchor="middle" x="280" y="-117" font-family="Helvetica,sans-Serif" font-size="10.00">codecs.hpp</text>
</a>
</g>
</g>
<!-- Node1&#45;&gt;Node9 -->
<g id="edge8_Node000001_Node000009" class="edge">
<title>Node1&#45;&gt;Node9</title>
<g id="a_edge8_Node000001_Node000009"><a xlink:title=" ">
<path fill="none" stroke="#63b8ff" d="M309.38,-219.66C304.18,-202.09 292.43,-162.45 285.47,-138.95"/>
<polygon fill="#63b8ff" stroke="#63b8ff" points="288.76,-137.75 282.57,-129.16 282.05,-139.74 288.76,-137.75"/>
</a>
</g>
</g>
<!-- Node12 -->
<g id="Node000012" class="node">
<title>Node12</title>
<g id="a_Node000012"><a xlink:title=" ">
<polygon fill="#e0e0e0" stroke="#999999" points="442.5,-74 395.5,-74 395.5,-55 442.5,-55 442.5,-74"/>
<text text-anchor="middle" x="419" y="-62" font-family="Helvetica,sans-Serif" font-size="10.00">vector</text>
</a>
</g>
</g>
<!-- Node1&#45;&gt;Node12 -->
<g id="edge21_Node000001_Node000012" class="edge">
<title>Node1&#45;&gt;Node12</title>
<g id="a_edge21_Node000001_Node000012"><a xlink:title=" ">
<path fill="none" stroke="#63b8ff" d="M359.6,-222.63C413.18,-213.19 497.84,-189.13 537,-129 559.4,-94.6 494.86,-77.45 452.59,-70.12"/>
<polygon fill="#63b8ff" stroke="#63b8ff" points="453.08,-66.65 442.65,-68.5 451.96,-73.56 453.08,-66.65"/>
</a>
</g>
</g>
<!-- Node14 -->
<g id="Node000014" class="node">
<title>Node14</title>
<g id="a_Node000014"><a xlink:href="packed_8hpp.html" target="_top" xlink:title=" ">
<polygon fill="white" stroke="#666666" points="380,-184 308,-184 308,-165 380,-165 380,-184"/>
<text text-anchor="middle" x="344" y="-172" font-family="Helvetica,sans-Serif" font-size="10.00">packed.hpp</text>
</a>
</g>
</g>
<!-- Node1&#45;&gt;Node14 -->
<g id="edge14_Node000001_Node000014" class="edge">
<title>Node1&#45;&gt;Node14</title>
<g id="a_edge14_Node000001_Node000014"><a xlink:title=" ">
<path fill="none" stroke="#63b8ff" d="M317.28,-219.75C321.71,-212.42 328.16,-201.73 333.62,-192.7"/>
<polygon fill="#63b8ff" stroke="#63b8ff" points="336.64,-194.46 338.81,-184.09 330.65,-190.84 336.64,-194.46"/>
</a>
</g>
</g>
<!-- Node17 -->
<g id="Node000017" class="node">
<title>Node17</title>
<g id="a_Node000017"><a xlink:title=" ">
<polygon fill="#e0e0e0" stroke="#999999" points="631.5,-184 584.5,-184 584.5,-165 631.5,-165 631.5,-184"/>
<text text-anchor="middle" x="608" y="-172" font-family="Helvetica,sans-Serif" font-size="10.00">cmath</text>
</a>
</g>
</g>
<!-- Node1&#45;&gt;Node17 -->
<g id="edge23_Node000001_Node000017" class="edge">
<title>Node1&#45;&gt;Node17</title>
<g id="a_edge23_Node000001_Node000017"><a xlink:title=" ">
<path fill="none" stroke="#63b8ff" d="M359.68,-221C411.56,-212.67 496.88,-198.48 570,-184 571.45,-183.71 572.93,-183.41 574.42,-183.1"/>
<polygon fill="#63b8ff" stroke="#63b8ff" points="575.28,-186.5 584.32,-180.99 573.81,-179.66 575.28,-186.5"/>
</a>
</g>
</g>
<!-- Node3 -->
<g id="Node000003" class="node">
<title>Node3</title>
<g id="a_Node000003"><a xlink:title=" ">
<polygon fill="#e0e0e0" stroke="#999999" points="224,-19 174,-19 174,0 224,0 224,-19"/>
<text text-anchor="middle" x="199" y="-7" font-family="Helvetica,sans-Serif" font-size="10.00">cstdint</text>
</a>
</g>
</g>
<!-- Node2&#45;&gt;Node3 -->
<g id="edge2_Node000002_Node000003" class="edge">
<title>Node2&#45;&gt;Node3</title>
<g id="a_edge2_Node000002_Node000003"><a xlink:title=" ">
<path fill="none" stroke="#63b8ff" d="M136.05,-54.98C147.46,-46.92 164.83,-34.65 178.43,-25.03"/>
<polygon fill="#63b8ff" stroke="#63b8ff" points="180.58,-27.8 186.73,-19.17 176.54,-22.08 180.58,-27.8"/>
</a>
</g>
</g>
<!-- Node4 -->
<g id="Node000004" class="node">
<title>Node4</title>
<g id="a_Node000004"><a xlink:title=" ">
<polygon fill="#e0e0e0" stroke="#999999" points="302,-19 242,-19 242,0 302,0 302,-19"/>
<text text-anchor="middle" x="272" y="-7" font-family="Helvetica,sans-Serif" font-size="10.00">concepts</text>
</a>
</g>
</g>
<!-- Node2&#45;&gt;Node4 -->
<g id="edge3_Node000002_Node000004" class="edge">
<title>Node2&#45;&gt;Node4</title>
<g id="a_edge3_Node000002_Node000004"><a xlink:title=" ">
<path fill="none" stroke="#63b8ff" d="M147.78,-54.98C172.23,-46.23 210.53,-32.51 238.15,-22.62"/>
<polygon fill="#63b8ff" stroke="#63b8ff" points="239.55,-25.84 247.79,-19.17 237.19,-19.25 239.55,-25.84"/>
</a>
</g>
</g>
<!-- Node5 -->
<g id="Node000005" class="node">
<title>Node5</title>
<g id="a_Node000005"><a xlink:title=" ">
<polygon fill="#e0e0e0" stroke="#999999" points="87.5,-19 58.5,-19 58.5,0 87.5,0 87.5,-19"/>
<text text-anchor="middle" x="73" y="-7" font-family="Helvetica,sans-Serif" font-size="10.00">bit</text>
</a>
</g>
</g>
<!-- Node2&#45;&gt;Node5 -->
<g id="edge4_Node000002_Node000005" class="edge">
<title>Node2&#45;&gt;Node5</title>
<g id="a_edge4_Node000002_Node000005"><a xlink:title=" ">
<path fill="none" stroke="#63b8ff" d="M115.58,-54.75C108.23,-47.11 97.37,-35.82 88.46,-26.56"/>
<polygon fill="#63b8ff" stroke="#63b8ff" points="90.72,-23.87 81.26,-19.09 85.68,-28.72 90.72,-23.87"/>
</a>
</g>
</g>
<!-- Node2&#45;&gt;Node6 -->
<g id="edge5_Node000002_Node000006" class="edge">
<title>Node2&#45;&gt;Node6</title>
<g id="a_edge5_Node000002_Node000006"><a xlink:title=" ">
<path fill="none" stroke="#63b8ff" d="M107.29,-54.98C90.79,-46.57 65.3,-33.59 46.12,-23.81"/>
<polygon fill="#63b8ff" stroke="#63b8ff" points="47.51,-20.59 37.01,-19.17 44.33,-26.83 47.51,-20.59"/>
</a>
</g>
</g>
<!-- Node7 -->
<g id="Node000007" class="node">
<title>Node7</title>
<g id="a_Node000007"><a xlink:title=" ">
<polygon fill="#e0e0e0" stroke="#999999" points="156,-19 106,-19 106,0 156,0 156,-19"/>
<text text-anchor="middle" x="131" y="-7" font-family="Helvetica,sans-Serif" font-size="10.00">ranges</text>
</a>
</g>
</g>
<!-- Node2&#45;&gt;Node7 -->
<g id="edge6_Node000002_Node000007" class="edge">
<title>Node2&#45;&gt;Node7</title>
<g id="a_edge6_Node000002_Node000007"><a xlink:title=" ">
<path fill="none" stroke="#63b8ff" d="M125.16,-54.75C126.07,-47.8 127.39,-37.85 128.54,-29.13"/>
<polygon fill="#63b8ff" stroke="#63b8ff" points="132.03,-29.46 129.87,-19.09 125.09,-28.54 132.03,-29.46"/>
</a>
</g>
</g>
<!-- Node8 -->
<g id="Node000008" class="node">
<title>Node8</title>
<g id="a_Node000008"><a xlink:title=" ">
<polygon fill="#e0e0e0" stroke="#999999" points="389,-19 333,-19 333,0 389,0 389,-19"/>
<text text-anchor="middle" x="361" y="-7" font-family="Helvetica,sans-Serif" font-size="10.00">optional</text>
</a>
</g>
</g>
<!-- Node2&#45;&gt;Node8 -->
<g id="edge7_Node000002_Node000008" class="edge">
<title>Node2&#45;&gt;Node8</title>
<g id="a_edge7_Node000002_Node000008"><a xlink:title=" ">
<path fill="none" stroke="#63b8ff" d="M153.54,-56.89C196.43,-47.3 275.95,-29.52 323.11,-18.97"/>
<polygon fill="#63b8ff" stroke="#63b8ff" points="323.94,-22.37 332.94,-16.78 322.42,-15.54 323.94,-22.37"/>
</a>
</g>
</g>
<!-- Node9&#45;&gt;Node2 -->
<g id="edge9_Node000009_Node000002" class="edge">
<title>Node9&#45;&gt;Node2</title>
<g id="a_edge9_Node000009_Node000002"><a xlink:title=" ">
<path fill="none" stroke="#63b8ff" d="M254.94,-109.98C228.97,-101.16 188.19,-87.31 159.04,-77.41"/>
<polygon fill="#63b8ff" stroke="#63b8ff" points="159.85,-73.99 149.26,-74.08 157.6,-80.61 159.85,-73.99"/>
</a>
</g>
</g>
<!-- Node10 -->
<g id="Node000010" class="node">
<title>Node10</title>
<g id="a_Node000010"><a xlink:title=" ">
<polygon fill="#e0e0e0" stroke="#999999" points="279,-74 235,-74 235,-55 279,-55 279,-74"/>
<text text-anchor="middle" x="257" y="-62" font-family="Helvetica,sans-Serif" font-size="10.00">limits</text>
</a>
</g>
</g>
<!-- Node9&#45;&gt;Node10 -->
<g id="edge10_Node000009_Node000010" class="edge">
<title>Node9&#45;&gt;Node10</title>
<g id="a_edge10_Node000009_Node000010"><a xlink:title=" ">
<path fill="none" stroke="#63b8ff" d="M276.2,-109.75C273.09,-102.57 268.58,-92.18 264.71,-83.27"/>
<polygon fill="#63b8ff" stroke="#63b8ff" points="267.92,-81.87 260.73,-74.09 261.5,-84.66 267.92,-81.87"/>
</a>
</g>
</g>
<!-- Node11 -->
<g id="Node000011" class="node">
<title>Node11</title>
<g id="a_Node000011"><a xlink:title=" ">
<polygon fill="#e0e0e0" stroke="#999999" points="339,-74 297,-74 297,-55 339,-55 339,-74"/>
<text text-anchor="middle" x="318" y="-62" font-family="Helvetica,sans-Serif" font-size="10.00">array</text>
</a>
</g>
</g>
<!-- Node9&#45;&gt;Node11 -->
<g id="edge11_Node000009_Node000011" class="edge">
<title>Node9&#45;&gt;Node11</title>
<g id="a_edge11_Node000009_Node000011"><a xlink:title=" ">
<path fill="none" stroke="#63b8ff" d="M286.27,-109.75C291.59,-102.34 299.36,-91.5 305.88,-82.41"/>
<polygon fill="#63b8ff" stroke="#63b8ff" points="308.86,-84.26 311.84,-74.09 303.17,-80.18 308.86,-84.26"/>
</a>
</g>
</g>
<!-- Node9&#45;&gt;Node12 -->
<g id="edge12_Node000009_Node000012" class="edge">
<title>Node9&#45;&gt;Node12</title>
<g id="a_edge12_Node000009_Node000012"><a xlink:title=" ">
<path fill="none" stroke="#63b8ff" d="M302.33,-109.98C325.2,-101.27 360.96,-87.63 386.86,-77.75"/>
<polygon fill="#63b8ff" stroke="#63b8ff" points="388.16,-81 396.26,-74.17 385.67,-74.46 388.16,-81"/>
</a>
</g>
</g>
<!-- Node13 -->
<g id="Node000013" class="node">
<title>Node13</title>
<g id="a_Node000013"><a xlink:title=" ">
<polygon fill="#e0e0e0" stroke="#999999" points="216.5,-74 171.5,-74 171.5,-55 216.5,-55 216.5,-74"/>
<text text-anchor="middle" x="194" y="-62" font-family="Helvetica,sans-Serif" font-size="10.00">utility</text>
</a>
</g>
</g>
<!-- Node9&#45;&gt;Node13 -->
<g id="edge13_Node000009_Node000013" class="edge">
<title>Node9&#45;&gt;Node13</title>
<g id="a_edge13_Node000009_Node000013"><a xlink:title=" ">
<path fill="none" stroke="#63b8ff" d="M266.18,-109.98C252.85,-101.77 232.42,-89.18 216.69,-79.49"/>
<polygon fill="#63b8ff" stroke="#63b8ff" points="218.42,-76.44 208.07,-74.17 214.75,-82.4 218.42,-76.44"/>
</a>
</g>
</g>
<!-- Node14&#45;&gt;Node2 -->
<g id="edge15_Node000014_Node000002" class="edge">
<title>Node14&#45;&gt;Node2</title>
<g id="a_edge15_Node000014_Node000002"><a xlink:title=" ">
<path fill="none" stroke="#63b8ff" d="M320.65,-164.99C298.31,-156.61 263.85,-143.06 235,-129 203.39,-113.59 168.41,-92.94 146.33,-79.44"/>
<polygon fill="#63b8ff" stroke="#63b8ff" points="148.05,-76.39 137.7,-74.12 144.38,-82.35 148.05,-76.39"/>
</a>
</g>
</g>
<!-- Node14&#45;&gt;Node8 -->
<g id="edge20_Node000014_Node000008" class="edge">
<title>Node14&#45;&gt;Node8</title>
<g id="a_edge20_Node000014_Node000008"><a xlink:title=" ">
<path fill="none" stroke="#63b8ff" d="M344.91,-164.74C347.57,-139.31 355.31,-65.08 359,-29.69"/>
<polygon fill="#63b8ff" stroke="#63b8ff" points="362.53,-29.62 360.08,-19.31 355.56,-28.89 362.53,-29.62"/>
</a>
</g>
</g>
<!-- Node14&#45;&gt;Node9 -->
<g id="edge16_Node000014_Node000009" class="edge">
<title>Node14&#45;&gt;Node9</title>
<g id="a_edge16_Node000014_Node000009"><a xlink:title=" ">
<path fill="none" stroke="#63b8ff" d="M333.72,-164.98C324.16,-157.07 309.72,-145.11 298.22,-135.58"/>
<polygon fill="#63b8ff" stroke="#63b8ff" points="300.4,-132.85 290.47,-129.17 295.94,-138.24 300.4,-132.85"/>
</a>
</g>
</g>
<!-- Node14&#45;&gt;Node12 -->
<g id="edge17_Node000014_Node000012" class="edge">
<title>Node14&#45;&gt;Node12</title>
<g id="a_edge17_Node000014_Node000012"><a xlink:title=" ">
<path fill="none" stroke="#63b8ff" d="M350.14,-164.66C362.62,-146.69 391.12,-105.64 407.28,-82.38"/>
<polygon fill="#63b8ff" stroke="#63b8ff" points="410.16,-84.37 412.99,-74.16 404.41,-80.38 410.16,-84.37"/>
</a>
</g>
</g>
<!-- Node15 -->
<g id="Node000015" class="node">
<title>Node15</title>
<g id="a_Node000015"><a xlink:title=" ">
<polygon fill="#e0e0e0" stroke="#999999" points="528,-129 470,-129 470,-110 528,-110 528,-129"/>
<text text-anchor="middle" x="499" y="-117" font-family="Helvetica,sans-Serif" font-size="10.00">memory</text>
</a>
</g>
</g>
<!-- Node14&#45;&gt;Node15 -->
<g id="edge18_Node000014_Node000015" class="edge">
<title>Node14&#45;&gt;Node15</title>
<g id="a_edge18_Node000014_Node000015"><a xlink:title=" ">
<path fill="none" stroke="#63b8ff" d="M368.9,-164.98C394.7,-156.16 435.22,-142.31 464.18,-132.41"/>
<polygon fill="#63b8ff" stroke="#63b8ff" points="465.57,-135.63 473.9,-129.08 463.31,-129.01 465.57,-135.63"/>
</a>
</g>
</g>
<!-- Node16 -->
<g id="Node000016" class="node">
<title>Node16</title>
<g id="a_Node000016"><a xlink:title=" ">
<polygon fill="#e0e0e0" stroke="#999999" points="451.5,-129 410.5,-129 410.5,-110 451.5,-110 451.5,-129"/>
<text text-anchor="middle" x="431" y="-117" font-family="Helvetica,sans-Serif" font-size="10.00">tuple</text>
</a>
</g>
</g>
<!-- Node14&#45;&gt;Node16 -->
<g id="edge19_Node000014_Node000016" class="edge">
<title>Node14&#45;&gt;Node16</title>
<g id="a_edge19_Node000014_Node000016"><a xlink:title=" ">
<path fill="none" stroke="#63b8ff" d="M357.98,-164.98C371.47,-156.77 392.13,-144.18 408.04,-134.49"/>
<polygon fill="#63b8ff" stroke="#63b8ff" points="410.05,-137.36 416.77,-129.17 406.41,-131.38 410.05,-137.36"/>
</a>
</g>
</g>
</g>
</svg>
